<svg width="0" height="0" class="hidden">
  <symbol fill="none" xmlns="http://www.w3.org/2000/svg" viewBox="0 0 24 24" id="ic-2-arrows-1">
    <path d="M6 20l-3-3 3-3m12-4l3-3-3-3M3 17h18m0-10H3" stroke="currentColor" stroke-width="1.5" stroke-linecap="round" stroke-linejoin="round"></path>
  </symbol>
  <symbol fill="none" xmlns="http://www.w3.org/2000/svg" viewBox="0 0 24 24" id="ic-arrow-right-1">
    <path fill-rule="evenodd" clip-rule="evenodd" d="M20.565 11.307L13.212 3.34a.82.82 0 01.015-1.117.724.724 0 011.061.016l8.5 9.21a.82.82 0 010 1.101l-8.5 9.21a.724.724 0 01-1.06.017.82.82 0 01-.016-1.117l7.248-7.853-17.712-.056a.75.75 0 01.004-1.5l17.813.056z" fill="currentColor"></path>
  </symbol>
  <symbol fill="none" xmlns="http://www.w3.org/2000/svg" viewBox="0 0 16 12" id="ic-check">
    <path fill-rule="evenodd" clip-rule="evenodd" d="M15.0303 0.46967C15.3232 0.762563 15.3232 1.23744 15.0303 1.53033L5.53033 11.0303C5.23744 11.3232 4.76256 11.3232 4.46967 11.0303L0.46967 7.03033C0.176777 6.73744 0.176777 6.26256 0.46967 5.96967C0.762563 5.67678 1.23744 5.67678 1.53033 5.96967L5 9.43934L13.9697 0.46967C14.2626 0.176777 14.7374 0.176777 15.0303 0.46967Z" fill="#0052C4"></path>
  </symbol>
  <symbol fill="none" xmlns="http://www.w3.org/2000/svg" viewBox="0 0 32 32" id="ic-coin-BCH">
    <circle cx="16" cy="16" r="16" fill="#8DC451"></circle>
    <g>
      <path fill-rule="evenodd" clip-rule="evenodd" d="M22.632 14.802c-.576-.433-1.325-.637-2.246-.61.954-.851 1.186-1.925.696-3.221-.174-.471-.421-.854-.742-1.148a2.62 2.62 0 00-1.145-.61 5.254 5.254 0 00-1.387-.159c-.482.008-1.022.064-1.62.17l-.742-2.766-1.71.458.721 2.689c-.296.08-.745.208-1.348.385l-.726-2.711-1.71.458.741 2.766c-.242.073-.6.172-1.074.3l-2.356.619.482 1.8 1.233-.33c.562-.15.958.01 1.188.482l.844 3.15c.074-.02.134-.032.18-.037l-.177.048 1.182 4.413c.04.388-.124.633-.494.732l-1.232.33.194 2.1 2.22-.594c.141-.038.345-.09.612-.158.268-.068.468-.12.601-.155l.75 2.799 1.71-.459-.741-2.766c.313-.076.765-.193 1.357-.352l.738 2.755 1.71-.458-.75-2.799c.599-.191 1.122-.39 1.57-.597a6.862 6.862 0 001.248-.74c.383-.287.684-.597.904-.93a3.14 3.14 0 00.455-1.17 4.29 4.29 0 00-.007-1.469c-.176-1.042-.553-1.78-1.129-2.215zm-8.96-2.846l.903 3.37.384-.097c.22-.055.392-.1.517-.138l.549-.171c.241-.076.44-.151.594-.224.155-.073.335-.164.54-.274a1.96 1.96 0 00.483-.347 3.14 3.14 0 00.332-.407c.102-.149.165-.316.186-.502a1.565 1.565 0 00-.05-.587 1.476 1.476 0 00-.311-.605 1.58 1.58 0 00-.462-.37 1.718 1.718 0 00-.615-.165 3.977 3.977 0 00-.66-.018 6.43 6.43 0 00-.706.096c-.276.05-.493.098-.65.145a84.811 84.811 0 01-1.034.294zm6.516 6.737a1.6 1.6 0 00.155-.512c.025-.188.01-.383-.045-.589a1.5 1.5 0 00-.355-.657 1.71 1.71 0 00-.546-.395 2.19 2.19 0 00-.728-.164 5.627 5.627 0 00-.781-.008 6.862 6.862 0 00-.848.121c-.332.065-.59.123-.775.173-.185.05-.423.117-.713.202-.29.086-.465.137-.524.153l.994 3.71.412-.105a15.035 15.035 0 001.756-.53 8.26 8.26 0 00.608-.262c.228-.108.42-.214.575-.319a3.91 3.91 0 00.465-.372c.156-.143.273-.292.35-.446z" fill="#fff"></path>
    </g>
  </symbol>
  <symbol fill="none" xmlns="http://www.w3.org/2000/svg" viewBox="0 0 32 32" id="ic-coin-BTC">
    <circle cx="16" cy="16" r="16" fill="#F7931B"></circle>
    <g>
      <path fill-rule="evenodd" clip-rule="evenodd" d="M22.427 17.991c-.294-.658-.85-1.199-1.669-1.622 1.247-.282 1.97-1.109 2.17-2.48.077-.497.046-.95-.092-1.364a2.62 2.62 0 00-.706-1.09 5.256 5.256 0 00-1.136-.81c-.425-.227-.925-.44-1.5-.637l.693-2.779-1.717-.428-.673 2.702a64.66 64.66 0 00-1.366-.317l.679-2.724-1.717-.428-.693 2.779c-.247-.054-.609-.14-1.085-.259l-2.36-.6-.452 1.808 1.238.308c.565.141.833.474.806.998l-.79 3.164c.075.019.133.037.176.056l-.178-.045-1.105 4.433c-.153.36-.415.494-.787.4l-1.238-.308-.849 1.932 2.23.556c.142.035.346.088.613.158l.6.156-.7 2.811 1.717.429.693-2.779c.31.085.762.202 1.357.35l-.69 2.768 1.717.428.701-2.812a13.92 13.92 0 001.664.24c.492.036.975.022 1.45-.043.474-.066.888-.19 1.242-.376.354-.184.675-.452.964-.802.288-.35.524-.779.706-1.288.352-.997.38-1.825.087-2.485zm-6.457-6.833l-.844 3.385.383.102c.218.058.391.101.519.13.127.027.315.066.563.116.248.05.457.081.628.092.171.012.372.019.604.022.233.003.43-.02.592-.069.163-.05.325-.114.487-.195.162-.08.298-.197.407-.35.109-.152.19-.33.24-.537.06-.242.068-.469.022-.68a1.58 1.58 0 00-.225-.547 1.717 1.717 0 00-.458-.443 3.975 3.975 0 00-.568-.334 6.41 6.41 0 00-.664-.26 6.802 6.802 0 00-.64-.188 82.376 82.376 0 01-1.046-.244zm2.433 9.051c.143-.097.27-.221.384-.373a1.49 1.49 0 00.246-.536 1.5 1.5 0 00.008-.747 1.71 1.71 0 00-.286-.61 2.19 2.19 0 00-.557-.496 5.633 5.633 0 00-.68-.386 6.836 6.836 0 00-.8-.305 12.447 12.447 0 00-.761-.225 30.376 30.376 0 00-.722-.169 33.951 33.951 0 01-.533-.12l-.93 3.726c.06.015.197.051.412.109a15.26 15.26 0 001.792.388c.187.027.407.049.66.065.252.016.471.016.657 0a4.03 4.03 0 00.587-.1c.206-.05.38-.124.523-.22z" fill="#fff"></path>
    </g>
  </symbol>
  <symbol fill="none" xmlns="http://www.w3.org/2000/svg" viewBox="0 0 32 32" id="ic-coin-ETH">
    <circle cx="16" cy="16" r="16" fill="#fff"></circle>
    <path fill-rule="evenodd" clip-rule="evenodd" d="M32 16c0-8.837-7.163-16-16-16S0 7.163 0 16s7.163 16 16 16 16-7.163 16-16zM.727 16C.727 7.565 7.565.727 16 .727 24.435.727 31.273 7.565 31.273 16c0 8.435-6.838 15.273-15.273 15.273C7.565 31.273.727 24.435.727 16z" fill="#000" fill-opacity=".12"></path>
    <path d="M16.03 12.592L8 16.242l8.03 4.747 8.032-4.747-8.032-3.65z" fill="#000"></path>
    <path opacity=".45" d="M8.003 16.242l8.03 4.747V2.918l-8.03 13.325z" fill="#000"></path>
    <path opacity=".8" d="M16.033 2.918v18.071l8.03-4.747-8.03-13.324z" fill="#000"></path>
    <path opacity=".45" d="M8 17.766l8.03 11.316V22.51L8 17.766z" fill="#000"></path>
    <path opacity=".8" d="M16.03 22.51v6.572l8.036-11.316-8.036 4.744z" fill="#000"></path>
  </symbol>
  <symbol fill="none" xmlns="http://www.w3.org/2000/svg" viewBox="0 0 32 32" id="ic-coin-EUR">
    <path d="M32 16c0 8.837-7.163 16-16 16S0 24.837 0 16 7.163 0 16 0s16 7.163 16 16z" fill="#0075FF"></path>
    <path d="M12.039 13.422c.302-1.303.878-2.286 1.728-2.95.849-.663 1.937-.994 3.264-.994.523 0 .971.04 1.344.122.372.081.744.192 1.117.332l-.541 2.024a7.112 7.112 0 00-.856-.227 4.727 4.727 0 00-1.082-.104c-.698 0-1.245.151-1.64.454-.385.302-.664.75-.838 1.343h3.874l-.331 1.728h-3.77a3.747 3.747 0 00-.018.332v.506c0 .07.006.17.018.297h3.56l-.331 1.728h-3.002c.197.698.494 1.187.89 1.466.395.268.89.402 1.483.402.384 0 .774-.035 1.17-.105.395-.07.791-.186 1.187-.35l.506 2.008c-.314.163-.722.303-1.222.42-.489.127-1.065.191-1.728.191-1.455 0-2.566-.349-3.334-1.047-.768-.71-1.274-1.705-1.518-2.985h-1.257v-1.728h1.1a3.527 3.527 0 01-.018-.297v-.541c0-.104.006-.203.018-.296h-1.1v-1.729h1.327z" fill="#fff"></path>
  </symbol>
  <symbol fill="none" xmlns="http://www.w3.org/2000/svg" viewBox="0 0 32 32" id="ic-coin-LTC">
    <circle cx="16" cy="16" r="16" fill="#00AEFF"></circle>
    <g>
      <path d="M15.384 20.128l1.089-3.914 2.578-.899.642-2.3-.022-.056-2.538.884 1.828-6.57h-5.186l-2.391 8.575-1.997.696-.66 2.37 1.995-.695-1.409 5.054h13.802L24 20.128h-8.616z" fill="#fff"></path>
    </g>
  </symbol>
  <symbol fill="none" xmlns="http://www.w3.org/2000/svg" viewBox="0 0 32 32" id="ic-coin-USD">
    <circle cx="16" cy="16" r="16" fill="#0075FF"></circle>
    <path d="M17.867 19.176c0-.498-.14-.893-.42-1.185-.273-.298-.74-.571-1.403-.82a17.388 17.388 0 01-1.713-.739 5.775 5.775 0 01-1.24-.847 3.548 3.548 0 01-.802-1.13c-.188-.432-.282-.946-.282-1.541 0-1.027.328-1.868.984-2.525.656-.656 1.528-1.039 2.616-1.148V7.29h1.458v1.977c1.076.152 1.917.602 2.525 1.35.608.74.911 1.704.911 2.889h-2.634c0-.73-.152-1.274-.456-1.632-.297-.365-.698-.547-1.203-.547-.498 0-.884.143-1.157.429-.274.279-.41.668-.41 1.166 0 .462.133.833.4 1.112.268.28.763.565 1.486.857.73.292 1.328.568 1.796.83a5 5 0 011.185.874c.322.322.568.693.738 1.112.17.414.255.897.255 1.45 0 1.032-.322 1.871-.966 2.515-.644.644-1.531 1.024-2.661 1.14v1.813h-1.45v-1.804c-1.245-.134-2.211-.575-2.898-1.322-.68-.753-1.02-1.753-1.02-2.999h2.633c0 .723.17 1.28.51 1.668.347.383.842.575 1.486.575.535 0 .957-.14 1.267-.42.31-.285.465-.668.465-1.148z" fill="#fff"></path>
  </symbol>
  <symbol fill="none" xmlns="http://www.w3.org/2000/svg" viewBox="0 0 24 24" id="ic-large-arrow-left-1">
    <path d="M15 6l-6 6 6 6" stroke="currentColor" stroke-width="2" stroke-linecap="round" stroke-linejoin="round"></path>
  </symbol>
  <symbol fill="none" xmlns="http://www.w3.org/2000/svg" viewBox="0 0 24 24" id="ic-menu-1">
    <path d="M3 17h18M3 12h18M3 7h18" stroke="currentColor" stroke-width="1.5" stroke-linecap="round" stroke-linejoin="round"></path>
  </symbol>
  <symbol fill="none" xmlns="http://www.w3.org/2000/svg" viewBox="0 0 45 30" id="ic-pay-card-1">
    <path fill-rule="evenodd" clip-rule="evenodd" d="M9 9.75h25.5V7.712a2.462 2.462 0 00-2.462-2.462H11.462A2.462 2.462 0 009 7.712V9.75zm0 12.538a2.462 2.462 0 002.461 2.462h20.577a2.462 2.462 0 002.462-2.462V13.5H9v8.788z" fill="currentColor"></path>
  </symbol>
  <symbol fill="none" xmlns="http://www.w3.org/2000/svg" viewBox="0 0 45 30" id="ic-pay-mc-1">
    <path fill-rule="evenodd" clip-rule="evenodd" d="M37.5 25.55v-2.362h-.544v1.37a.984.984 0 00-.816-.383c-.75 0-1.36.613-1.36 1.37 0 .757.61 1.371 1.36 1.371a.984.984 0 00.816-.384v.318h.544v-1.3zm-16.86-1.31h.93l.006.522h-.924v1.195c0 .263.103.438.375.438.177-.006.349-.057.5-.148l.163.488a1.32 1.32 0 01-.707.203c-.668 0-.902-.362-.902-.97v-1.206h-.528v-.521h.517v-.795h.57v.795zm-7.518.977v1.644l-.57.011v-1.458c0-.444-.186-.69-.572-.69a.61.61 0 00-.48.197.62.62 0 00-.156.498v1.453h-.571v-1.458c0-.444-.19-.69-.566-.69a.606.606 0 00-.48.196.617.617 0 00-.156.5v1.441H9v-2.62h.566v.323a.857.857 0 01.761-.39c.35-.014.68.165.86.467.197-.312.547-.49.913-.466a.964.964 0 01.745.288.98.98 0 01.277.753zm13.273-1.042a.766.766 0 00-.686.384v-.318h-.56v2.62h.566v-1.47c0-.432.185-.673.544-.673a.915.915 0 01.353.065l.174-.548a1.2 1.2 0 00-.402-.071l.01.01zm-8.354 0c.373-.013.74.082 1.06.274l-.25.46a1.666 1.666 0 00-.815-.224c-.31 0-.495.131-.495.307 0 .175.196.224.44.257l.272.039c.566.082.909.285.909.784 0 .499-.435.855-1.186.855a1.865 1.865 0 01-1.126-.34l.272-.444c.25.187.554.283.865.274.386 0 .593-.115.593-.318 0-.148-.147-.23-.457-.274l-.272-.038c-.582-.082-.897-.346-.897-.773 0-.521.43-.84 1.087-.84zm16.21 0a.765.765 0 00-.686.384v-.318h-.56v2.62h.566v-1.47c0-.432.185-.673.544-.673a.915.915 0 01.353.065l.174-.548a1.201 1.201 0 00-.402-.071l.01.01zm-6.895 2.365a1.33 1.33 0 01-.393-.995v-.01a1.33 1.33 0 01.393-.995c.264-.26.625-.397.994-.376.34-.018.673.094.935.312l-.272.46a1.137 1.137 0 00-.68-.235.839.839 0 00-.767.839.84.84 0 00.768.839c.245-.003.484-.086.68-.236l.271.46c-.262.219-.596.33-.935.313a1.31 1.31 0 01-.994-.376zm4.904-.995v-1.304h-.565v.318a.984.984 0 00-.816-.384c-.751 0-1.36.613-1.36 1.37 0 .757.609 1.371 1.36 1.371a.984.984 0 00.816-.384v.318h.565v-1.305zm-1.29-.745a.788.788 0 00-.815.745.79.79 0 00.213.594.789.789 0 001.358-.534.79.79 0 00-.757-.805zm-7.64-.625c-.75.01-1.35.633-1.34 1.39.01.757.627 1.362 1.378 1.351.392.02.776-.107 1.08-.356l-.272-.422c-.215.173-.48.27-.756.274a.722.722 0 01-.778-.642h1.93v-.22c0-.821-.505-1.37-1.234-1.37l-.008-.005zm.46.69a.642.642 0 00-.46-.18h-.01a.67.67 0 00-.691.636h1.36a.652.652 0 00-.2-.456zm12.433-.06a.788.788 0 00-.814.746.79.79 0 00.212.593c.15.16.359.248.576.246a.789.789 0 00.782-.78.79.79 0 00-.756-.804zm-19.911.746v-1.31h-.566v.318a.984.984 0 00-.815-.384c-.751 0-1.36.613-1.36 1.37 0 .757.609 1.371 1.36 1.371a.984.984 0 00.815-.384v.318h.566v-1.3zm-1.29-.745a.788.788 0 00-.815.745h-.005a.79.79 0 00.214.595.789.789 0 001.362-.536.79.79 0 00-.757-.804z" fill="#000"></path>
    <circle cx="17.549" cy="12.313" r="9.375" fill="#EB001B"></circle>
    <circle cx="28.799" cy="12.313" r="9.375" fill="#F79E1B"></circle>
    <path fill-rule="evenodd" clip-rule="evenodd" d="M23.174 19.814a9.36 9.36 0 003.75-7.501 9.361 9.361 0 00-3.75-7.5 9.36 9.36 0 00-3.75 7.5 9.36 9.36 0 003.75 7.5z" fill="#FF5F00"></path>
  </symbol>
  <symbol fill="none" xmlns="http://www.w3.org/2000/svg" viewBox="0 0 45 30" id="ic-pay-visa-1">
    <path fill-rule="evenodd" clip-rule="evenodd" d="M22.206 12.873c-.02 1.67 1.49 2.602 2.627 3.157 1.169.568 1.561.933 1.557 1.441-.01.779-.933 1.122-1.797 1.136-1.508.023-2.384-.407-3.081-.733l-.543 2.542c.699.322 1.994.603 3.336.615 3.152 0 5.214-1.555 5.225-3.968.012-3.06-4.234-3.23-4.205-4.599.01-.414.405-.857 1.273-.97.43-.057 1.615-.1 2.959.519l.527-2.46a8.042 8.042 0 00-2.808-.514c-2.966 0-5.053 1.576-5.07 3.834zM35.153 9.25c-.576 0-1.061.336-1.277.851l-4.502 10.75h3.149l.627-1.732h3.848l.364 1.732h2.775l-2.422-11.6h-2.562zm.44 3.134l.909 4.356h-2.49l1.581-4.356zM18.388 9.25l-2.482 11.6h3l2.482-11.6h-3zm-4.44 0l-3.123 7.896-1.263-6.714c-.149-.749-.734-1.182-1.384-1.182H3.07L3 9.587c1.048.228 2.24.595 2.96.987.442.24.568.45.713 1.02l2.393 9.257h3.172L17.1 9.25h-3.15z" fill="#1A1F71"></path>
  </symbol>
  <symbol fill="none" xmlns="http://www.w3.org/2000/svg" viewBox="0 0 24 24" id="ic-warning-1">
    <path fill-rule="evenodd" clip-rule="evenodd" d="M18.723 15.211l.074.163A2.617 2.617 0 0116.381 19H7.618a2.618 2.618 0 01-2.341-3.789l4.382-8.763a2.617 2.617 0 014.682 0l4.382 8.763zm-1.391.697L12.95 7.143a1.061 1.061 0 00-1.9 0l-4.382 8.765a1.063 1.063 0 00.95 1.536h8.764a1.061 1.061 0 00.95-1.537zm-4.555-3.13V9.667a.778.778 0 10-1.555 0v3.111a.778.778 0 101.555 0zM10.833 15.5a1.167 1.167 0 101.294-1.16l-.128-.006c-.644 0-1.166.522-1.166 1.166z" fill="currentColor"></path>
  </symbol>
  <symbol fill="none" xmlns="http://www.w3.org/2000/svg" viewBox="0 0 48 48" id="ic_bank_1">
    <circle opacity="0.1" cx="24" cy="24" r="24" fill="#00C853"></circle>
    <path fill-rule="evenodd" clip-rule="evenodd" d="M13 15.926V23.5375C13 28.7741 16.2251 33.4699 21.1127 35.35L22.154 35.7501C23.0203 36.0833 23.9797 36.0833 24.8462 35.75L25.887 35.3501C30.7749 33.4699 34 28.7741 34 23.5375V15.9238C34.0058 15.0484 33.4947 14.2464 32.6941 13.8799C29.9561 12.6848 27.0214 12.0489 24.0504 12.0027L23.493 12.001C20.3462 11.9716 17.2149 12.6101 14.318 13.8745C13.5603 14.2212 13.0647 14.9418 13.0059 15.7513L13 15.926ZM14.5 15.9188C14.4981 15.6287 14.6665 15.3645 14.9302 15.2437C17.6214 14.0693 20.5435 13.4735 23.493 13.5008C26.4565 13.4735 29.3785 14.0693 32.0819 15.2492C32.3335 15.3645 32.5019 15.6287 32.5 15.9188L32.5 23.5375C32.5 28.1535 29.6571 32.2928 25.3487 33.9501L24.308 34.35C23.7878 34.55 23.2122 34.55 22.6922 34.3501L21.651 33.95C17.3429 32.2928 14.5 28.1535 14.5 23.5375L14.5 15.9188ZM19.75 20.2506V21.1286C18.8761 21.4375 18.25 22.2709 18.25 23.2505V27.7503C18.25 28.9929 19.2574 30.0002 20.5 30.0002H26.5C27.7426 30.0002 28.7499 28.9929 28.7499 27.7503V23.2505C28.7499 22.2709 28.1238 21.4375 27.25 21.1286V20.2506C27.25 18.1796 25.571 16.5008 23.5 16.5008C21.4289 16.5008 19.75 18.1796 19.75 20.2506ZM19.75 23.2505C19.75 22.8363 20.0858 22.5005 20.5 22.5005H26.5C26.9142 22.5005 27.25 22.8363 27.25 23.2505V27.7503C27.25 28.1645 26.9142 28.5003 26.5 28.5003H20.5C20.0858 28.5003 19.75 28.1645 19.75 27.7503V23.2505ZM25.75 20.2506V21.0006H21.25V20.2506C21.25 19.008 22.2573 18.0007 23.5 18.0007C24.7426 18.0007 25.75 19.008 25.75 20.2506ZM23.5 26.6544C22.8787 26.6544 22.375 26.1507 22.375 25.5294C22.375 24.9083 22.8784 24.4047 23.4995 24.4045L23.6226 24.4111C24.1862 24.4721 24.625 24.9495 24.625 25.5294C24.625 26.1507 24.1213 26.6544 23.5 26.6544Z" fill="#00C853"></path>
  </symbol>
  <symbol fill="none" xmlns="http://www.w3.org/2000/svg" viewBox="0 0 48 48" id="ic_bank_2">
    <circle opacity="0.1" cx="24" cy="24" r="24" fill="#673AB7"></circle>
    <circle cx="26" cy="22" r="7" stroke="#673AB7" stroke-width="1.5" stroke-linecap="round"></circle>
    <circle cx="22" cy="26" r="7" stroke="#673AB7" stroke-width="1.5" stroke-linecap="round"></circle>
  </symbol>
  <symbol fill="none" xmlns="http://www.w3.org/2000/svg" viewBox="0 0 48 48" id="ic_bank_3">
    <circle opacity="0.1" cx="24" cy="24" r="24" fill="#0277BD"></circle>
    <path d="M24.985 14.6567L24 14L23.015 14.6567C19.9805 16.6797 18.4668 20.334 19.182 23.9102L21 33H27L28.818 23.9102C29.5332 20.334 28.0195 16.6797 24.985 14.6567Z" stroke="#0277BD" stroke-width="1.5" stroke-linejoin="round"></path>
    <circle cx="24" cy="22" r="2" stroke="#0277BD" stroke-width="1.5" stroke-linejoin="round"></circle>
    <path d="M30 34L27 33L28.5 25.5L31 30L30 34Z" stroke="#0277BD" stroke-width="1.5" stroke-linejoin="round"></path>
    <path d="M18 34L21 33L19.5 25.5L17 30L18 34Z" stroke="#0277BD" stroke-width="1.5" stroke-linejoin="round"></path>
  </symbol>
  <symbol fill="none" xmlns="http://www.w3.org/2000/svg" viewBox="0 0 48 48" id="ic_bank_4">
    <circle opacity="0.1" cx="24" cy="24" r="24" fill="#26C6DA"></circle>
    <path d="M30.5 21.6676C31.444 22.3242 32 23.1296 32 24C32 26.2091 28.4183 28 24 28C19.5817 28 16 26.2091 16 24C16 23.1296 16.556 22.3242 17.5 21.6676" stroke="#26C6DA" stroke-width="1.5" stroke-linecap="round"></path>
    <ellipse cx="24" cy="19" rx="8" ry="4" stroke="#26C6DA" stroke-width="1.5" stroke-linecap="round"></ellipse>
    <path d="M17.0703 27C16.3896 27.5883 16 28.2714 16 29C16 31.2091 19.5817 33 24 33C28.4183 33 32 31.2091 32 29C32 28.2714 31.6104 27.5883 30.9297 27" stroke="#26C6DA" stroke-width="1.5" stroke-linecap="round"></path>
  </symbol>
  <symbol fill="none" xmlns="http://www.w3.org/2000/svg" viewBox="0 0 48 48" id="ic_bank_5">
    <circle opacity="0.1" cx="24" cy="24" r="24" fill="#8E24AA"></circle>
    <path d="M33 24C33 28.9706 28.9706 33 24 33C19.0294 33 15 28.9706 15 24C15 19.0294 19.0294 15 24 15" stroke="#8E24AA" stroke-width="1.5" stroke-linecap="round" stroke-linejoin="round"></path>
    <path d="M20 23L24 27L32 19" stroke="#8E24AA" stroke-width="1.5" stroke-linecap="round" stroke-linejoin="round"></path>
  </symbol>
  <symbol fill="none" xmlns="http://www.w3.org/2000/svg" viewBox="0 0 48 48" id="ic_bank_6">
    <circle opacity="0.1" cx="24" cy="24" r="24" fill="#43A047"></circle>
    <mask id="path-2-inside-1" fill="white">
      <path fill-rule="evenodd" clip-rule="evenodd" d="M31.0711 31.0711C32.8807 29.2614 34 26.7614 34 24C34 18.4772 29.5228 14 24 14C18.4772 14 14 18.4772 14 24C14 29.5228 18.4772 34 24 34H32.7929C33.2383 34 33.4614 33.4614 33.1464 33.1464L31.0711 31.0711Z"></path>
    </mask>
    <path d="M31.0711 31.0711L30.0104 30.0104C29.7291 30.2917 29.5711 30.6732 29.5711 31.0711C29.5711 31.4689 29.7291 31.8504 30.0104 32.1317L31.0711 31.0711ZM32.5 24C32.5 26.3476 31.5502 28.4706 30.0104 30.0104L32.1317 32.1317C34.2112 30.0523 35.5 27.1752 35.5 24H32.5ZM24 15.5C28.6944 15.5 32.5 19.3056 32.5 24H35.5C35.5 17.6487 30.3513 12.5 24 12.5V15.5ZM15.5 24C15.5 19.3056 19.3056 15.5 24 15.5V12.5C17.6487 12.5 12.5 17.6487 12.5 24H15.5ZM24 32.5C19.3056 32.5 15.5 28.6944 15.5 24H12.5C12.5 30.3513 17.6487 35.5 24 35.5V32.5ZM32.7929 32.5H24V35.5H32.7929V32.5ZM32.0858 34.2071C31.4558 33.5771 31.902 32.5 32.7929 32.5V35.5C34.5747 35.5 35.467 33.3457 34.2071 32.0858L32.0858 34.2071ZM30.0104 32.1317L32.0858 34.2071L34.2071 32.0858L32.1317 30.0104L30.0104 32.1317Z" fill="#43A047" mask="url(#path-2-inside-1)"></path>
  </symbol>
  <symbol fill="none" xmlns="http://www.w3.org/2000/svg" viewBox="0 0 66 66" id="ic_compliant">
    <circle opacity="0.1" cx="33" cy="33" r="33" fill="#8E24AA"></circle>
    <path fill-rule="evenodd" clip-rule="evenodd" d="M33 21.6562C26.735 21.6562 21.6562 26.735 21.6562 33C21.6562 39.265 26.735 44.3438 33 44.3438C39.265 44.3438 44.3438 39.265 44.3438 33C44.3438 32.4305 44.8055 31.9688 45.375 31.9688C45.9445 31.9688 46.4062 32.4305 46.4062 33C46.4062 40.4041 40.4041 46.4062 33 46.4062C25.5959 46.4062 19.5938 40.4041 19.5938 33C19.5938 25.5959 25.5959 19.5938 33 19.5938C33.5695 19.5938 34.0312 20.0555 34.0312 20.625C34.0312 21.1945 33.5695 21.6562 33 21.6562Z" fill="#8E24AA"></path>
    <path fill-rule="evenodd" clip-rule="evenodd" d="M44.7292 25.3958C45.1319 25.7985 45.1319 26.4515 44.7292 26.8542L33.7292 37.8542C33.3265 38.2569 32.6735 38.2569 32.2708 37.8542L26.7708 32.3542C26.3681 31.9515 26.3681 31.2985 26.7708 30.8958C27.1735 30.4931 27.8265 30.4931 28.2292 30.8958L33 35.6666L43.2708 25.3958C43.6735 24.9931 44.3265 24.9931 44.7292 25.3958Z" fill="#8E24AA"></path>
  </symbol>
  <symbol fill="none" xmlns="http://www.w3.org/2000/svg" viewBox="0 0 66 66" id="ic_flexible">
    <circle opacity="0.1" cx="33" cy="33" r="33" fill="#2B65D9"></circle>
    <path fill-rule="evenodd" clip-rule="evenodd" d="M24.9091 29.2042C25.2343 29.6718 25.1189 30.3145 24.6513 30.6397C23.4934 31.445 23.0312 32.2791 23.0312 33.0001C23.0312 33.9178 23.802 35.0263 25.683 35.9668C27.5023 36.8764 30.0878 37.4688 33 37.4688C35.9122 37.4688 38.4977 36.8764 40.317 35.9668C42.198 35.0263 42.9688 33.9178 42.9688 33.0001C42.9688 32.2791 42.5066 31.445 41.3487 30.6397C40.8811 30.3145 40.7657 29.6718 41.0909 29.2042C41.4161 28.7367 42.0587 28.6212 42.5263 28.9464C43.9645 29.9467 45.0312 31.3275 45.0312 33.0001C45.0312 35.1199 43.3396 36.7614 41.2394 37.8115C39.0774 38.8925 36.1629 39.5313 33 39.5313C29.8371 39.5313 26.9226 38.8925 24.7606 37.8115C22.6604 36.7614 20.9688 35.1199 20.9688 33.0001C20.9688 31.3275 22.0355 29.9467 23.4737 28.9464C23.9413 28.6212 24.5839 28.7367 24.9091 29.2042Z" fill="#2B65D9"></path>
    <path fill-rule="evenodd" clip-rule="evenodd" d="M25.683 23.1583C23.802 24.0988 23.0312 25.2073 23.0312 26.125C23.0312 27.0427 23.802 28.1512 25.683 29.0917C27.5023 30.0014 30.0878 30.5938 33 30.5938C35.9122 30.5938 38.4977 30.0014 40.317 29.0917C42.198 28.1512 42.9688 27.0427 42.9688 26.125C42.9688 25.2073 42.198 24.0988 40.317 23.1583C38.4977 22.2486 35.9122 21.6562 33 21.6562C30.0878 21.6562 27.5023 22.2486 25.683 23.1583ZM24.7606 21.3135C26.9226 20.2326 29.8371 19.5938 33 19.5938C36.1629 19.5938 39.0774 20.2326 41.2394 21.3135C43.3396 22.3637 45.0312 24.0052 45.0312 26.125C45.0312 28.2448 43.3396 29.8863 41.2394 30.9365C39.0774 32.0174 36.1629 32.6562 33 32.6562C29.8371 32.6562 26.9226 32.0174 24.7606 30.9365C22.6604 29.8863 20.9688 28.2448 20.9688 26.125C20.9688 24.0052 22.6604 22.3637 24.7606 21.3135Z" fill="#2B65D9"></path>
    <path fill-rule="evenodd" clip-rule="evenodd" d="M24.2518 36.4507C24.6242 36.8815 24.5769 37.5328 24.146 37.9052C23.3515 38.5919 23.0312 39.2695 23.0312 39.875C23.0312 40.7928 23.802 41.9012 25.683 42.8417C27.5023 43.7514 30.0878 44.3438 33 44.3438C35.9122 44.3438 38.4977 43.7514 40.317 42.8417C42.198 41.9012 42.9688 40.7928 42.9688 39.875C42.9688 39.2695 42.6485 38.5919 41.854 37.9052C41.4231 37.5328 41.3758 36.8815 41.7482 36.4507C42.1206 36.0198 42.7719 35.9724 43.2028 36.3448C44.2801 37.2761 45.0312 38.4769 45.0312 39.875C45.0312 41.9948 43.3396 43.6364 41.2394 44.6865C39.0774 45.7674 36.1629 46.4063 33 46.4063C29.8371 46.4063 26.9226 45.7674 24.7606 44.6865C22.6604 43.6364 20.9688 41.9948 20.9688 39.875C20.9688 38.4769 21.7199 37.2761 22.7972 36.3448C23.2281 35.9724 23.8794 36.0198 24.2518 36.4507Z" fill="#2B65D9"></path>
  </symbol>
  <symbol fill="none" xmlns="http://www.w3.org/2000/svg" viewBox="0 0 66 66" id="ic_transparency">
    <circle opacity="0.1" cx="33" cy="33" r="33" fill="#2B65D9"></circle>
    <path fill-rule="evenodd" clip-rule="evenodd" d="M35.75 21.6562C31.0038 21.6562 27.1562 25.5038 27.1562 30.25C27.1562 34.9962 31.0038 38.8438 35.75 38.8438C40.4962 38.8438 44.3438 34.9962 44.3438 30.25C44.3438 25.5038 40.4962 21.6562 35.75 21.6562ZM25.0938 30.25C25.0938 24.3647 29.8647 19.5938 35.75 19.5938C41.6353 19.5938 46.4062 24.3647 46.4062 30.25C46.4062 36.1353 41.6353 40.9062 35.75 40.9062C29.8647 40.9062 25.0938 36.1353 25.0938 30.25Z" fill="#2B65D9"></path>
    <path fill-rule="evenodd" clip-rule="evenodd" d="M30.25 27.1562C25.5038 27.1562 21.6562 31.0038 21.6562 35.75C21.6562 40.4962 25.5038 44.3438 30.25 44.3438C34.9962 44.3438 38.8438 40.4962 38.8438 35.75C38.8438 31.0038 34.9962 27.1562 30.25 27.1562ZM19.5938 35.75C19.5938 29.8647 24.3647 25.0938 30.25 25.0938C36.1353 25.0938 40.9062 29.8647 40.9062 35.75C40.9062 41.6353 36.1353 46.4062 30.25 46.4062C24.3647 46.4062 19.5938 41.6353 19.5938 35.75Z" fill="#2B65D9"></path>
  </symbol>
   <symbol fill="none" xmlns="http://www.w3.org/2000/svg" viewBox="0 0 48 48" id="ic_gift">
    <circle opacity="0.1" cx="24" cy="24" r="24" fill="#8E24AA"></circle>
    <path d="M33.625 18.75H14.375C13.8918 18.75 13.5 19.1418 13.5 19.625V23.125C13.5 23.6082 13.8918 24 14.375 24H33.625C34.1082 24 34.5 23.6082 34.5 23.125V19.625C34.5 19.1418 34.1082 18.75 33.625 18.75Z" stroke="#8E24AA" stroke-width="1.5" stroke-linecap="round" stroke-linejoin="round"></path>
    <path d="M32.75 24V31.875C32.75 32.1071 32.6578 32.3296 32.4937 32.4937C32.3296 32.6578 32.1071 32.75 31.875 32.75H16.125C15.8929 32.75 15.6704 32.6578 15.5063 32.4937C15.3422 32.3296 15.25 32.1071 15.25 31.875V24" stroke="#8E24AA" stroke-width="1.5" stroke-linecap="round" stroke-linejoin="round"></path>
    <path d="M24 18.75V32.75" stroke="#8E24AA" stroke-width="1.5" stroke-linecap="round" stroke-linejoin="round"></path>
    <path d="M28.9497 17.5123C27.7123 18.7498 24 18.7498 24 18.7498C24 18.7498 24 15.0375 25.2374 13.8C25.7298 13.3082 26.3973 13.032 27.0933 13.0322C27.7892 13.0324 28.4566 13.309 28.9487 13.8011C29.4408 14.2932 29.7173 14.9605 29.7175 15.6565C29.7177 16.3524 29.4416 17.0199 28.9497 17.5123V17.5123Z" stroke="#8E24AA" stroke-width="1.5" stroke-linecap="round" stroke-linejoin="round"></path>
    <path d="M19.0503 17.5123C20.2877 18.7498 24 18.7498 24 18.7498C24 18.7498 24 15.0375 22.7626 13.8C22.2702 13.3082 21.6027 13.032 20.9067 13.0322C20.2108 13.0324 19.5434 13.309 19.0513 13.8011C18.5592 14.2932 18.2827 14.9605 18.2825 15.6565C18.2823 16.3524 18.5584 17.0199 19.0503 17.5123V17.5123Z" stroke="#8E24AA" stroke-width="1.5" stroke-linecap="round" stroke-linejoin="round"></path>
  </symbol>
  <symbol fill="none" xmlns="http://www.w3.org/2000/svg" viewBox="0 0 48 48" id="ic_fast">
    <circle opacity="0.1" cx="24" cy="24" r="24" fill="#0277BD"></circle>
    <path fill-rule="evenodd" clip-rule="evenodd" d="M23.584 13.376C23.8359 13.208 24.1641 13.208 24.416 13.376L25.4011 14.0327C28.6884 16.2242 30.3282 20.1831 29.5534 24.0573L27.7354 33.1471C27.6653 33.4977 27.3575 33.75 27 33.75H21C20.6425 33.75 20.3347 33.4977 20.2646 33.1471L18.4466 24.0573C17.6718 20.1831 19.3116 16.2242 22.5989 14.0327L23.584 13.376ZM24 14.9014L23.431 15.2807C20.6494 17.1351 19.2618 20.4849 19.9175 23.7631L21.6149 32.25H26.3852L28.0825 23.7631C28.7382 20.4849 27.3506 17.1351 24.569 15.2807L24 14.9014Z" fill="#2B65D9"></path>
    <path fill-rule="evenodd" clip-rule="evenodd" d="M24 20.75C23.3096 20.75 22.75 21.3096 22.75 22C22.75 22.6904 23.3096 23.25 24 23.25C24.6904 23.25 25.25 22.6904 25.25 22C25.25 21.3096 24.6904 20.75 24 20.75ZM21.25 22C21.25 20.4812 22.4812 19.25 24 19.25C25.5188 19.25 26.75 20.4812 26.75 22C26.75 23.5188 25.5188 24.75 24 24.75C22.4812 24.75 21.25 23.5188 21.25 22Z" fill="#2B65D9"></path>
    <path fill-rule="evenodd" clip-rule="evenodd" d="M28.3843 24.759C28.695 24.7105 29.0029 24.8609 29.1556 25.1358L31.6556 29.6358C31.748 29.8021 31.7738 29.9973 31.7276 30.1819L30.7276 34.1819C30.6769 34.3846 30.544 34.557 30.3609 34.6575C30.1778 34.758 29.961 34.7776 29.7628 34.7115L26.7628 33.7115C26.404 33.5919 26.1904 33.2238 26.2646 32.8529L27.7646 25.3529C27.8262 25.0446 28.0737 24.8075 28.3843 24.759ZM28.8353 27.6479L27.8653 32.4979L29.4688 33.0324L30.2006 30.1054L28.8353 27.6479Z" fill="#2B65D9"></path>
    <path fill-rule="evenodd" clip-rule="evenodd" d="M19.6157 24.759C19.305 24.7105 18.9971 24.8609 18.8444 25.1358L16.3444 29.6358C16.252 29.8021 16.2262 29.9973 16.2724 30.1819L17.2724 34.1819C17.3231 34.3846 17.456 34.557 17.6391 34.6575C17.8222 34.758 18.039 34.7776 18.2372 34.7115L21.2372 33.7115C21.596 33.5919 21.8096 33.2238 21.7354 32.8529L20.2354 25.3529C20.1738 25.0446 19.9263 24.8075 19.6157 24.759ZM19.1647 27.6479L20.1347 32.4979L18.5312 33.0324L17.7994 30.1054L19.1647 27.6479Z" fill="#2B65D9"></path>
  </symbol>
  <symbol fill="none" xmlns="http://www.w3.org/2000/svg" viewBox="0 0 48 48" id="ic_support">
    <circle opacity="0.1" cx="24" cy="24" r="24" fill="#43A047"></circle>
    <path fill-rule="evenodd" clip-rule="evenodd" d="M29.5711 31.0711C29.5711 30.6732 29.7291 30.2917 30.0104 30.0104C31.5502 28.4706 32.5 26.3476 32.5 24C32.5 19.3056 28.6944 15.5 24 15.5C19.3056 15.5 15.5 19.3056 15.5 24C15.5 28.6944 19.3056 32.5 24 32.5H30.3787L30.0104 32.1317C29.7291 31.8504 29.5711 31.4689 29.5711 31.0711ZM33.1464 33.1464C33.4614 33.4614 33.2383 34 32.7929 34H24C18.4772 34 14 29.5228 14 24C14 18.4772 18.4772 14 24 14C29.5228 14 34 18.4772 34 24C34 26.7614 32.8807 29.2614 31.0711 31.0711L33.1464 33.1464Z" fill="#2B65D9"></path>
  </symbol>
  <symbol fill="none" xmlns="http://www.w3.org/2000/svg" viewBox="0 0 48 48" id="gift-join">
    <rect width="48" height="48" rx="8" fill="#2B65D9" fill-opacity="0.1"></rect>
    <path d="M34.6267 21.333H13.2933V31.9997C13.2933 35.9997 14.6267 37.333 18.6267 37.333H29.2933C33.2933 37.333 34.6267 35.9997 34.6267 31.9997V21.333Z" stroke="#2B65D9" stroke-width="1.5" stroke-miterlimit="10" stroke-linecap="round" stroke-linejoin="round"></path>
    <path d="M36.6667 17.3337V18.667C36.6667 20.1337 35.96 21.3337 34 21.3337H14C11.96 21.3337 11.3334 20.1337 11.3334 18.667V17.3337C11.3334 15.867 11.96 14.667 14 14.667H34C35.96 14.667 36.6667 15.867 36.6667 17.3337Z" stroke="#2B65D9" stroke-width="1.5" stroke-miterlimit="10" stroke-linecap="round" stroke-linejoin="round"></path>
    <path d="M23.52 14.6666H16.16C15.7067 14.1733 15.72 13.4133 16.2 12.9333L18.0933 11.0399C18.5867 10.5466 19.4 10.5466 19.8933 11.0399L23.52 14.6666Z" stroke="#2B65D9" stroke-width="1.5" stroke-miterlimit="10" stroke-linecap="round" stroke-linejoin="round"></path>
    <path d="M31.8267 14.6666H24.4667L28.0933 11.0399C28.5867 10.5466 29.4 10.5466 29.8933 11.0399L31.7867 12.9333C32.2667 13.4133 32.28 14.1733 31.8267 14.6666Z" stroke="#2B65D9" stroke-width="1.5" stroke-miterlimit="10" stroke-linecap="round" stroke-linejoin="round"></path>
    <path d="M19.92 21.333V28.1863C19.92 29.253 21.0934 29.8797 21.9867 29.3063L23.24 28.4797C23.6934 28.1863 24.2667 28.1863 24.7067 28.4797L25.8934 29.2797C26.7734 29.8663 27.96 29.2397 27.96 28.173V21.333H19.92Z" stroke="#2B65D9" stroke-width="1.5" stroke-miterlimit="10" stroke-linecap="round" stroke-linejoin="round"></path>
  </symbol>
</svg>