<svg xmlns="http://www.w3.org/2000/svg" >
  <symbol viewBox="0 0 48 48" fill="none" id="bonus">
    <path d="M45 18.6V15a3.604 3.604 0 0 0-3.6-3.6h-7.513A5.396 5.396 0 0 0 25.2 5.014a5.396 5.396 0 0 0-8.687 6.386H9A3.604 3.604 0 0 0 5.4 15v3.6a3.6 3.6 0 0 0 2.4 3.39V27a1.2 1.2 0 0 0 2.4 0v-4.8h11.4v18h-1.2a1.2 1.2 0 1 0 0 2.4h16.2a6.007 6.007 0 0 0 6-6v-12a1.2 1.2 0 1 0-2.4 0v12a3.604 3.604 0 0 1-3.6 3.6h-7.8v-12a1.2 1.2 0 1 0-2.4 0v12H24v-18h17.4a3.604 3.604 0 0 0 3.6-3.6zM42.6 15v3.6a1.2 1.2 0 0 1-1.2 1.2H28.8v-6h12.6a1.2 1.2 0 0 1 1.2 1.2zM29.4 5.4a3 3 0 1 1 0 6 3 3 0 0 1 0-6zM18 8.4a3 3 0 1 1 6 0 3 3 0 0 1-6 0zM9 19.8a1.2 1.2 0 0 1-1.2-1.2V15A1.2 1.2 0 0 1 9 13.8h12.6v6H9zm15-6h2.4v6H24v-6z" fill="#1B1B1B"></path>
    <path d="M27.6 25.8a1.2 1.2 0 1 0 0-2.4 1.2 1.2 0 0 0 0 2.4zM10.8 45A7.8 7.8 0 1 0 3 37.2a7.81 7.81 0 0 0 7.8 7.8zm0-13.2a5.4 5.4 0 1 1-5.4 5.4 5.406 5.406 0 0 1 5.4-5.4z" fill="#1B1B1B"></path>
    <path d="M10.2 40.2a1.197 1.197 0 0 0 .848-.352l3.6-3.6a1.2 1.2 0 0 0-1.696-1.696l-2.752 2.75-1.552-1.551a1.2 1.2 0 0 0-1.696 1.697l2.4 2.4a1.196 1.196 0 0 0 .848.352z" fill="#1B1B1B"></path>
  </symbol>
  <symbol viewBox="0 0 18 18" fill="none"  id="check">
    <path d="M14.892 3.108A8.282 8.282 0 0 0 8.998.667a8.28 8.28 0 0 0-5.894 2.44c-3.25 3.25-3.25 8.537 0 11.785a8.281 8.281 0 0 0 5.894 2.441 8.28 8.28 0 0 0 5.894-2.44A8.277 8.277 0 0 0 17.333 9a8.28 8.28 0 0 0-2.441-5.892z" fill="#00C46B"></path>
    <path d="M13.333 5.917a.927.927 0 0 1 1.225-.038.74.74 0 0 1 .042 1.116l-6.066 5.92a.928.928 0 0 1-1.198.062l-3.033-2.369a.742.742 0 0 1-.094-1.113.927.927 0 0 1 1.222-.086l2.402 1.876 5.5-5.368z" fill="#fff"></path>
  </symbol>
  <symbol fill="none"  viewBox="0 0 10 10" id="chevron">
    <path d="M3 9l4-4-4-4" stroke="currentColor" stroke-width="2" stroke-linecap="round" stroke-linejoin="round"></path>
  </symbol>
  <symbol  fill="none" viewBox="0 0 32 32" id="flag_be">
    <path d="M16 32c8.837 0 16-7.163 16-16S24.837 0 16 0 0 7.163 0 16s7.163 16 16 16z" fill="#FCFCFC"></path>
    <path d="M6.609 14.84l-1.74-3.155L6.61 8.58l1.739 3.105-1.74 3.156zm-3.479 0l-1.739-3.155 1.74-3.105 1.739 3.105-1.74 3.156zm3.479 8.58l-1.74-3.155 1.74-3.106 1.739 3.106-1.74 3.155zm-3.479 0l-1.739-3.155 1.74-3.106 1.739 3.106-1.74 3.155zM8.348 3.106l-.493-.88a16.044 16.044 0 0 0-2.474 1.807l1.228 2.228 1.739-3.155zm-1.74 22.633l-1.24 2.216c.762.679 1.59 1.286 2.473 1.81l.507-.92-1.74-3.106z" fill="#A2001D"></path>
    <path d="M9.74 20.174v10.554A15.948 15.948 0 0 0 16 32c6.88 0 12.744-4.342 15.005-10.435L9.739 20.174z" fill="#6DA544"></path>
    <path d="M31.005 21.565C31.648 19.832 32 17.957 32 16c0-8.837-7.163-16-16-16a15.95 15.95 0 0 0-6.26 1.272v20.293h21.265z" fill="#A2001D"></path>
  </symbol>
  <symbol viewBox="0 0 24 24" fill="none"  id="flag_en">
    <path d="M12 24c6.627 0 12-5.373 12-12S18.627 0 12 0 0 5.373 0 12s5.373 12 12 12z" fill="#F0F0F0"></path>
    <path d="M2.48 4.694A11.956 11.956 0 0 0 .413 8.87h6.243L2.48 4.694zM23.586 8.87a11.957 11.957 0 0 0-2.067-4.176L17.344 8.87h6.242zM.413 15.13a11.957 11.957 0 0 0 2.067 4.176l4.176-4.176H.413zM19.305 2.48A11.957 11.957 0 0 0 15.13.414v6.243l4.175-4.175zM4.694 21.52a11.957 11.957 0 0 0 4.176 2.067v-6.243l-4.176 4.175zM8.87.413a11.957 11.957 0 0 0-4.176 2.068L8.87 6.656V.413zm6.26 23.174a11.96 11.96 0 0 0 4.175-2.068l-4.175-4.175v6.242zm2.214-8.457l4.175 4.176a11.957 11.957 0 0 0 2.067-4.176h-6.242z" fill="#0052B4"></path>
    <path d="M23.898 10.435H13.565V.102a12.12 12.12 0 0 0-3.13 0v10.333H.102a12.12 12.12 0 0 0 0 3.13h10.333v10.333a12.12 12.12 0 0 0 3.13 0V13.565h10.333a12.12 12.12 0 0 0 0-3.13z" fill="#D80027"></path>
    <path d="M15.13 15.13l5.356 5.355c.246-.246.48-.503.705-.77l-4.584-4.585H15.13zm-6.26 0l-5.355 5.355c.246.247.503.482.77.706l4.585-4.585v-1.475zm0-6.26L3.515 3.515a12.03 12.03 0 0 0-.705.77L7.394 8.87H8.87zm6.26 0l5.356-5.355a12.023 12.023 0 0 0-.77-.706L15.13 7.394V8.87z" fill="#D80027"></path>
  </symbol>
  <symbol viewBox="0 0 512 512" fill="none"  id="flag_es">
    <path d="M0 256c0 31.314 5.633 61.31 15.923 89.043L256 367.304l240.077-22.261C506.367 317.31 512 287.314 512 256c0-31.314-5.633-61.31-15.923-89.043L256 144.696 15.923 166.957C5.633 194.69 0 224.686 0 256z" fill="#FFDA44"></path>
    <path d="M496.077 166.957C459.906 69.473 366.071 0 256 0S52.094 69.473 15.923 166.957h480.154zM15.923 345.043C52.094 442.527 145.929 512 256 512s203.906-69.473 240.077-166.957H15.923z" fill="#D80027"></path>
  </symbol>
  <symbol  viewBox="0 0 512 512" id="flag_id">
    <circle cx="256" cy="256" r="256" fill="#f0f0f0"></circle>
    <path d="M0 256C0 114.616 114.616 0 256 0s256 114.616 256 256" fill="#a2001d"></path>
  </symbol>
  <symbol viewBox="0 0 24 24" fill="none"  id="flag_ja">
    <path d="M12 24c6.627 0 12-5.373 12-12S18.627 0 12 0 0 5.373 0 12s5.373 12 12 12z" fill="#F0F0F0"></path>
    <path d="M12 17.218a5.217 5.217 0 1 0 0-10.435 5.217 5.217 0 0 0 0 10.435z" fill="#D80027"></path>
  </symbol>
  <symbol viewBox="0 0 32 32"  xmlns:xlink="http://www.w3.org/1999/xlink" id="flag_ko">
    <defs>
      <circle id="a" cx="16" cy="16" r="16"></circle>
    </defs>
    <g fill="none" fill-rule="evenodd">
      <mask id="b" fill="#fff">
        <use xlink:href="#a"></use>
      </mask>
      <use fill="#FFF" xlink:href="#a"></use>
      <g mask="url(#b)">
        <path fill="#28292B" d="M3 10.306l.818.811 3.65-3.675-.815-.81zM4.175 11.5l3.652-3.675.817.811-3.652 3.675zm1.139 1.143l3.652-3.674.817.81-3.652 3.676zm18.58 7.947l1.434-1.445.818.812-1.436 1.447zm-1.401 3.041l-.818-.811 1.405-1.416.814.815zm2.588-1.86l1.422-1.431.816.812-1.424 1.434zm-1.411 3.053l-.818-.811 1.414-1.427.816.815zm2.554-1.914l.816.814 1.418-1.43-.817-.81zm-2.232 2.247l.818.813 1.418-1.429-.815-.815zm2.33-15.623l1.449 1.437.811-.818-1.444-1.435zM24.908 6.5l-.813.817 1.414 1.4.812-.813zm-2.005 1.993l.812-.817 1.426 1.415.815.816 1.43 1.42-.81.817-1.435-1.424-.815-.813zm1.1 3.371l.814-.814 1.427 1.414-.812.817zm-2.246-2.23l.812-.818L24 10.236l-.817.816zM5.361 19.905l.812-.816 1.416 1.403.814.815 1.446 1.435-.813.816-1.447-1.436-.815-.815zm1.861 2.588l1.431 1.422-.813.817-1.433-1.424zm-3.053-1.411l.812-.818 1.426 1.415-.815.815zm-1.146 1.14L4.45 23.64l.818.812 1.429 1.418.811-.818-1.426-1.414-.816-.813-1.433-1.42z"></path>
        <path d="M22.132 15.99a6.21 6.21 0 1 1-12.417 0 6.21 6.21 0 0 1 12.417 0" fill="#2E4593"></path>
        <path d="M22.1 15.99c0 .296-.02.585-.062.87-.18-1.231-.852-3.45-3.395-3.493-1.859 0-2.497.826-2.889 1.802-.568 1.41-.63 3.126-3.126 3.126-1.836 0-2.63-1.037-2.943-2.213-.004-.03-.004-.06-.004-.091a6.212 6.212 0 0 1 6.212-6.212 6.211 6.211 0 0 1 6.208 6.212" fill="#DB2E2E"></path>
      </g>
    </g>
  </symbol>
  <symbol  viewBox="0 0 512 512" id="flag_ms">
    <circle cx="256" cy="256" r="256" fill="#f0f0f0"></circle>
    <path d="M244.87 256H512c0-23.107-3.08-45.489-8.819-66.783H244.87V256zm0-133.565h229.556a257.328 257.328 0 0 0-59.069-66.783H244.87v66.783zM256 512c60.249 0 115.626-20.824 159.357-55.652H96.643C140.374 491.176 195.751 512 256 512zM37.574 389.565h436.852a254.492 254.492 0 0 0 28.755-66.783H8.819a254.46 254.46 0 0 0 28.755 66.783z" fill="#d80027"></path>
    <path d="M256 256V0C114.616 0 0 114.616 0 256h256z" fill="#0052b4"></path>
    <g fill="#ffda44">
      <path d="M170.234 219.13c-34.962 0-63.304-28.343-63.304-63.304s28.343-63.304 63.304-63.304c10.901 0 21.158 2.757 30.113 7.609-14.048-13.737-33.26-22.217-54.461-22.217-43.029 0-77.913 34.883-77.913 77.913s34.884 77.913 77.913 77.913c21.201 0 40.413-8.48 54.461-22.217-8.955 4.85-19.211 7.607-30.113 7.607z"></path>
      <path d="M188.073 111.304l11.239 23.502 25.381-5.864-11.366 23.439 20.412 16.187-25.414 5.729.071 26.051-20.323-16.298-20.324 16.298.07-26.051-25.414-5.729 20.412-16.187-11.367-23.439 25.383 5.864z"></path>
    </g>
  </symbol>
  <symbol viewBox="0 0 512 512" fill="none"  id="flag_pt">
    <path d="M0 256c0 110.07 69.472 203.905 166.955 240.076l22.262-240.077-22.262-240.076C69.472 52.095 0 145.929 0 256z" fill="#6DA544"></path>
    <path d="M512 256C512 114.616 397.384 0 256 0c-31.314 0-61.311 5.633-89.045 15.923v480.154C194.689 506.368 224.686 512 256 512c141.384 0 256-114.616 256-256z" fill="#D80027"></path>
    <path d="M166.957 345.043C216.134 345.043 256 305.177 256 256c0-49.177-39.866-89.043-89.043-89.043-49.177 0-89.043 39.866-89.043 89.043 0 49.177 39.866 89.043 89.043 89.043z" fill="#FFDA44"></path>
    <path d="M116.87 211.478v55.652c0 27.662 22.424 50.087 50.087 50.087 27.663 0 50.087-22.424 50.087-50.087v-55.652H116.87z" fill="#D80027"></path>
    <path d="M166.957 283.826c-9.206 0-16.696-7.49-16.696-16.696v-22.26h33.391v22.261c0 9.205-7.49 16.695-16.695 16.695z" fill="#F0F0F0"></path>
  </symbol>
  <!-- <symbol  fill="none" viewBox="0 0 24 24" id="flag_ru">
    <path d="M12 24c6.627 0 12-5.373 12-12S18.627 0 12 0 0 5.373 0 12s5.373 12 12 12z" fill="#F0F0F0"></path>
    <path d="M23.254 16.174c.482-1.3.746-2.706.746-4.174 0-1.468-.264-2.874-.746-4.174H.746A11.974 11.974 0 0 0 0 12c0 1.468.264 2.874.746 4.174L12 17.217l11.254-1.043z" fill="#0052B4"></path>
    <path d="M12 24c5.16 0 9.558-3.257 11.254-7.826H.746C2.442 20.744 6.84 24 12 24z" fill="#D80027"></path>
  </symbol> -->
  <symbol viewBox="0 0 24 24" fill="none"  id="flag_th">
    <path d="M12 24c6.627 0 12-5.373 12-12S18.627 0 12 0 0 5.373 0 12s5.373 12 12 12z" fill="#F0F0F0"></path>
    <path d="M23.254 7.826H.746A11.973 11.973 0 0 0 0 12c0 1.468.264 2.874.746 4.174h22.508c.482-1.3.746-2.706.746-4.174 0-1.468-.264-2.874-.746-4.174z" fill="#0052B4"></path>
    <path d="M12 0a11.972 11.972 0 0 0-9.097 4.174h18.194A11.972 11.972 0 0 0 12 0zm9.096 19.826H2.903A11.972 11.972 0 0 0 12 24c3.637 0 6.896-1.618 9.096-4.174z" fill="#D80027"></path>
  </symbol>
  <symbol  viewBox="0 0 512 512" id="flag_vi">
    <circle cx="256" cy="256" r="256" fill="#d80027"></circle>
    <path fill="#ffda44" d="M256 133.565l27.628 85.029h89.405l-72.331 52.55 27.628 85.03L256 303.623l-72.33 52.551 27.628-85.03-72.33-52.55h89.404z"></path>
  </symbol>
  <symbol viewBox="0 0 32 32"  xmlns:xlink="http://www.w3.org/1999/xlink" id="flag_zh">
    <defs>
      <circle id="a" cx="16" cy="16" r="16"></circle>
    </defs>
    <g fill="none" fill-rule="evenodd">
      <mask id="b" fill="#fff">
        <use xlink:href="#a"></use>
      </mask>
      <circle stroke="#949494" stroke-width=".5" cx="16" cy="16" r="15.75"></circle>
      <g mask="url(#b)">
        <path fill="#F42525" d="M-13.5 35.04h59.879V-2.5H-13.5z"></path>
        <g fill="#FFF">
          <path d="M13.305 14.885l1.634 4.6-3.899-2.888-.007-.021-.007.021-3.903 2.887 1.637-4.599.045-.032h-.026L4.765 12.14l4.833.008 1.327-4.628 1.49 4.62-.007.013.015-.005 4.88-.008-4.027 2.713h-.013zm10.727 4.691l.304.871.275-.885-.306-.944z"></path>
          <path d="M24.612 19.561l-.751.539.925.018.823-.557z"></path>
          <path d="M24.33 20.475l.799.589-.339-.94-.752-.53z"></path>
          <path d="M23.05 19.561l.819.557.929-.018-.753-.539z"></path>
          <path d="M23.866 20.124l-.334.94.795-.59.292-.881zm-4.338 4.179l.049.922.513-.769-.03-.992z"></path>
          <path d="M19.219 24.757l.882.282.945-.307-.956-.276z"></path>
          <path d="M19.562 25.25l.594.786-.052-.994-.573-.721z"></path>
          <path d="M19.222 24.778l.893.243-.571-.724-.956-.282z"></path>
          <path d="M19.214 24.783l-.584.808.93-.342.527-.763zm5.999-11.043l-.23.892.723-.583.27-.952z"></path>
          <path d="M24.783 14.076l.76.531.992-.003-.83-.553z"></path>
          <path d="M24.966 14.65l.333.932.243-.968-.333-.857z"></path>
          <path d="M24.78 14.097l.781.5-.327-.862-.827-.554z"></path>
          <path d="M24.772 14.097l-.798.594.989-.045.73-.565zm-2.369-5.845l.04.92.52-.767-.018-.99z"></path>
          <path d="M22.086 8.701l.882.288.947-.292-.952-.288z"></path>
          <path d="M22.428 9.193l.587.8-.045-.996-.564-.729z"></path>
          <path d="M22.09 8.719l.894.252-.562-.727-.954-.292z"></path>
          <path d="M22.083 8.727l-.59.797.932-.33.534-.755z"></path>
        </g>
      </g>
    </g>
  </symbol>
  <symbol viewBox="0 0 17 16" fill="none"  id="gift">
    <path d="M16.003 5.941V4.57a1.373 1.373 0 0 0-1.372-1.372h-2.863A2.056 2.056 0 0 0 8.458.765a2.056 2.056 0 0 0-3.31 2.433H2.287A1.373 1.373 0 0 0 .915 4.57v1.37a1.372 1.372 0 0 0 .914 1.292v1.909a.457.457 0 1 0 .914 0v-1.83h4.344v6.86H6.63a.457.457 0 1 0 0 .914h6.172a2.289 2.289 0 0 0 2.286-2.287V8.227a.457.457 0 1 0-.914 0V12.8a1.373 1.373 0 0 1-1.372 1.372H9.83V9.6a.457.457 0 1 0-.914 0v4.572H8V7.313h6.63a1.373 1.373 0 0 0 1.372-1.372zm-.915-1.371v1.37a.457.457 0 0 1-.457.457h-4.8V4.112h4.8a.457.457 0 0 1 .457.458zM10.058.912a1.143 1.143 0 1 1 0 2.286 1.143 1.143 0 0 1 0-2.286zM5.716 2.055a1.143 1.143 0 1 1 2.286 0 1.143 1.143 0 0 1-2.286 0zm-3.43 4.343a.457.457 0 0 1-.457-.457V4.57a.457.457 0 0 1 .457-.458h4.801v2.286h-4.8zm5.715-2.286h.915v2.286H8V4.112z" fill="#FE4040"></path>
    <path d="M16.003 5.941V4.57a1.373 1.373 0 0 0-1.372-1.372h-2.863A2.056 2.056 0 0 0 8.458.765a2.056 2.056 0 0 0-3.31 2.433H2.287A1.373 1.373 0 0 0 .915 4.57v1.37a1.372 1.372 0 0 0 .914 1.292v1.909a.457.457 0 1 0 .914 0v-1.83h4.344v6.86H6.63a.457.457 0 1 0 0 .914h6.172a2.289 2.289 0 0 0 2.286-2.287V8.227a.457.457 0 1 0-.914 0V12.8a1.373 1.373 0 0 1-1.372 1.372H9.83V9.6a.457.457 0 1 0-.914 0v4.572H8V7.313h6.63a1.373 1.373 0 0 0 1.372-1.372zm-.915-1.371v1.37a.457.457 0 0 1-.457.457h-4.8V4.112h4.8a.457.457 0 0 1 .457.458zM10.058.912a1.143 1.143 0 1 1 0 2.286 1.143 1.143 0 0 1 0-2.286zM5.716 2.055a1.143 1.143 0 1 1 2.286 0 1.143 1.143 0 0 1-2.286 0zm-3.43 4.343a.457.457 0 0 1-.457-.457V4.57a.457.457 0 0 1 .457-.458h4.801v2.286h-4.8zm5.715-2.286h.915v2.286H8V4.112z" fill="#232425"></path>
    <path d="M9.373 8.685a.457.457 0 1 0 0-.915.457.457 0 0 0 0 .915z" fill="#FE4040"></path>
    <path d="M9.373 8.685a.457.457 0 1 0 0-.915.457.457 0 0 0 0 .915z" fill="#232425"></path>
    <path d="M2.972 16a2.972 2.972 0 1 0 0-5.943 2.972 2.972 0 0 0 0 5.943zm0-5.03a2.058 2.058 0 1 1 0 4.117 2.058 2.058 0 0 1 0-4.116z" fill="#FE4040"></path>
    <path d="M2.972 16a2.972 2.972 0 1 0 0-5.943 2.972 2.972 0 0 0 0 5.943zm0-5.03a2.058 2.058 0 1 1 0 4.117 2.058 2.058 0 0 1 0-4.116z" fill="#232425"></path>
    <path d="M2.743 14.171a.455.455 0 0 0 .323-.134l1.372-1.372a.457.457 0 0 0-.647-.646l-1.048 1.048-.591-.591a.457.457 0 0 0-.647.646l.915.915a.455.455 0 0 0 .323.134z" fill="#FE4040"></path>
    <path d="M2.743 14.171a.455.455 0 0 0 .323-.134l1.372-1.372a.457.457 0 0 0-.647-.646l-1.048 1.048-.591-.591a.457.457 0 0 0-.647.646l.915.915a.455.455 0 0 0 .323.134z" fill="#232425"></path>
  </symbol>
  <symbol viewBox="0 0 24 24" fill="none"  id="login">
    <path d="M15 3h4a2 2 0 0 1 2 2v14a2 2 0 0 1-2 2h-4m-5-4l5-5-5-5m5 5H3" stroke="#00C46B" stroke-width="2" stroke-linecap="round" stroke-linejoin="round"></path>
  </symbol>
  <symbol viewBox="0 0 24 24" fill="none"  id="login-light">
    <path d="M15.8125 12.0218H3.77151" stroke="#00C46B" stroke-width="1.5" stroke-linecap="round" stroke-linejoin="round"/>
    <path d="M12.8848 9.1058L15.8128 12.0218L12.8848 14.9378" stroke="#00C46B" stroke-width="1.5" stroke-linecap="round" stroke-linejoin="round"/>
    <path d="M8.50441 7.389V6.456C8.50441 4.421 10.1534 2.772 12.1894 2.772H17.0734C19.1034 2.772 20.7484 4.417 20.7484 6.447V17.587C20.7484 19.622 19.0984 21.272 17.0634 21.272H12.1784C10.1494 21.272 8.50441 19.626 8.50441 17.597V16.655" stroke="#00C46B" stroke-width="1.5" stroke-linecap="round" stroke-linejoin="round"/>
  </symbol>
  <symbol fill="currentColor" stroke-width="0" stroke="none" viewBox="0 0 118 16" id="logo">
    <path d="M46 8.28516C46.01 8.11586 46.01 7.94612 46 7.77682C46.0114 5.33111 44.1594 3.27577 41.7186 3.02528C39.2778 2.77479 37.0445 4.41087 36.5557 6.80758C36.0668 9.20429 37.4819 11.5797 39.8271 12.299C42.1723 13.0183 44.6824 11.8469 45.63 9.5909H43.11C42.6357 10.0646 41.9914 10.3301 41.32 10.3285C40.1199 10.3332 39.0788 9.5031 38.82 8.33499H46V8.28516ZM41.32 5.22513C42.3071 5.22576 43.2059 5.79197 43.63 6.68039H39C39.4257 5.78872 40.3293 5.2219 41.32 5.22513ZM55.92 7.79675L55.92 12.5114H53.73V7.79675C53.7327 7.12 53.4655 6.46992 52.9873 5.98952C52.509 5.50911 51.859 5.23774 51.18 5.2351C50.7127 5.23552 50.2467 5.28564 49.79 5.38461V12.5114H47.6V3.48082C48.7607 3.13784 49.9705 2.98963 51.18 3.04225C53.805 3.05324 55.9255 5.18029 55.92 7.79675ZM33.88 3.04225H35V5.25504H33.88C33.1966 5.25767 32.5425 5.53146 32.0621 6.01589C31.5817 6.50032 31.3147 7.1555 31.32 7.83662V12.4715H29.13V7.83662C29.1193 6.5722 29.6145 5.35564 30.5058 4.45594C31.3972 3.55623 32.6114 3.04751 33.88 3.04225ZM26.57 3.04225H27.74V5.25504H26.57C25.8849 5.25502 25.2282 5.52764 24.7456 6.01236C24.2631 6.49708 23.9947 7.15378 24 7.83662V12.4715H21.83V7.83662C21.8194 6.57392 22.3131 5.35886 23.2023 4.45945C24.0915 3.56003 25.3032 3.05015 26.57 3.04225ZM17 3.04225H19.2V12.0728C18.0393 12.4158 16.8295 12.564 15.62 12.5114C14.3576 12.5061 13.1489 12.0012 12.26 11.1077C11.3711 10.2141 10.8747 9.00524 10.88 7.74691L10.88 3.04225H13.07V7.74691C13.0673 8.42366 13.3345 9.07375 13.8127 9.55415C14.2909 10.0346 14.941 10.3059 15.62 10.3086C16.0834 10.3059 16.5455 10.2592 17 10.169V3.04225ZM9.49 6.68039H7.15C6.71184 5.79058 5.80444 5.22627 4.81 5.22513C3.56666 5.23772 2.51218 6.13899 2.31005 7.36187C2.10792 8.58475 2.81659 9.77557 3.99016 10.1851C5.16373 10.5946 6.4628 10.1043 7.07 9.02275H9.45C8.78844 11.3063 6.55112 12.7644 4.18715 12.4527C1.82317 12.141 0.0431557 10.1532 0 7.77682C0.0449694 5.372 1.86715 3.3709 4.26418 3.09396C6.66121 2.81702 8.89433 4.34958 9.49 6.68039ZM97.32 3.04225C95.3979 3.03822 93.6628 4.1892 92.9245 5.95806C92.1861 7.72692 92.59 9.76497 93.9477 11.1211C95.3054 12.4773 97.3492 12.8842 99.1254 12.1519C100.902 11.4197 102.06 9.69268 102.06 7.77682C102.06 5.16588 99.9395 3.04775 97.32 3.04225ZM97.32 10.3285C96.2837 10.3325 95.3471 9.7134 94.9478 8.76023C94.5484 7.80706 94.7649 6.7079 95.4963 5.97606C96.2276 5.24421 97.3295 5.02407 98.2874 5.41843C99.2452 5.81279 99.87 6.74385 99.87 7.77682C99.87 9.18219 98.7299 10.323 97.32 10.3285ZM118 7.91636V12.631H115.81V7.91636C115.81 6.50549 114.665 5.3602 113.25 5.35471C112.58 5.35471 111.85 5.80325 111.85 6.27172V12.5114H109.66V7.79675C109.66 6.38587 108.515 5.24059 107.1 5.2351C106.633 5.23604 106.167 5.28616 105.71 5.38461V12.5114H103.52V3.48082C104.681 3.13784 105.891 2.98963 107.1 3.04225C108.322 3.123 109.477 3.63131 110.36 4.47757C111.085 3.64046 112.14 3.16005 113.25 3.16186C115.877 3.17284 118 5.29829 118 7.91636ZM79.87 7.84659C79.87 8.49066 79.3462 9.01279 78.7 9.01279C78.0538 9.01279 77.53 8.49066 77.53 7.84659C77.53 7.20251 78.0538 6.68039 78.7 6.68039C79.3462 6.68039 79.87 7.20251 79.87 7.84659ZM77.58 3.04225L72 16H69.5L71.21 12.013L67.55 3.04225H70.19L72.46 9.21214L75.08 3.04225H77.58ZM59.58 7.77682C59.5798 8.96055 60.3844 9.99395 61.5349 10.2877C62.6853 10.5814 63.8892 10.0608 64.46 9.02275H66.84C66.1921 11.3217 63.9486 12.7975 61.5732 12.4872C59.1977 12.1768 57.4115 10.1745 57.38 7.78678C57.425 5.38196 59.2472 3.38087 61.6442 3.10393C64.0412 2.82699 66.2743 4.35955 66.87 6.69036H64.53C63.9988 5.61992 62.8026 5.04985 61.6333 5.30991C60.4639 5.56997 59.6243 6.59283 59.6 7.78678L59.58 7.77682ZM84 7.77682C84.0146 8.94183 84.8104 9.95269 85.9421 10.244C87.0739 10.5354 88.2612 10.035 88.84 9.02275H91.22C90.5592 11.3048 88.3246 12.763 85.9619 12.454C83.5993 12.145 81.8178 10.1615 81.77 7.78678C81.815 5.38196 83.6371 3.38087 86.0342 3.10393C88.4312 2.82699 90.6643 4.35955 91.26 6.69036H88.92C88.4818 5.80054 87.5744 5.23624 86.58 5.2351C85.1667 5.23501 84.0164 6.36824 84 7.77682Z"></path>
  </symbol>
  <symbol viewBox="0 0 18 18" fill="none"  id="oncheck">
    <path opacity=".3" d="M9 17.333A8.333 8.333 0 1 1 9 .667a8.333 8.333 0 0 1 0 16.666z" fill="#000"></path>
    <path d="M9 17.333A8.333 8.333 0 1 1 9 .667a8.333 8.333 0 0 1 0 16.666z" fill="#528ECE"></path>
    <path d="M8.328 4h.09c.274 0 .504.185.53.428l.486 4.33 3.464 1.766a.47.47 0 0 1 .269.413v.2c0 .2-.183.363-.408.363a.454.454 0 0 1-.107-.013L7.726 10.29c-.246-.06-.41-.268-.391-.496l.462-5.354c.02-.248.253-.439.531-.439z" fill="#fff"></path>
  </symbol>
  <symbol viewBox="0 0 32 28" fill="none"  id="registration-type">
    <path d="M.865 26.81h30.27M28.973 9.513v11.244m-5.622-10.379v13.838M8.649 10.378v13.838m-5.622-3.459V9.513m25.946 14.703H3.027m.865-15.135h26.102a.913.913 0 0 0 .384-1.73L17.081 1.077a1.88 1.88 0 0 0-1.73 0L2.054 7.35a.912.912 0 0 0 .385 1.73h1.02m14.703 14.271v-8.216a2.07 2.07 0 0 0-2.054-2.162h-.056a2.21 2.21 0 0 0-2.214 2.162v5.622" stroke="#F2F3F5" stroke-width="2" stroke-linecap="round" stroke-linejoin="round"></path>
  </symbol>
  <symbol fill="currentColor" stroke-width="0"  viewBox="0 0 18 18" id="search">
    <path d="M16.305 17.719a1 1 0 0 0 1.39-1.438l-1.39 1.438zm-2.67-5.368a1 1 0 0 0-1.391 1.438l1.39-1.438zM13 7.5A5.5 5.5 0 0 1 7.5 13v2A7.5 7.5 0 0 0 15 7.5h-2zM7.5 13A5.5 5.5 0 0 1 2 7.5H0A7.5 7.5 0 0 0 7.5 15v-2zM2 7.5A5.5 5.5 0 0 1 7.5 2V0A7.5 7.5 0 0 0 0 7.5h2zM7.5 2A5.5 5.5 0 0 1 13 7.5h2A7.5 7.5 0 0 0 7.5 0v2zm10.195 14.281l-4.06-3.93-1.391 1.438 4.06 3.93 1.392-1.438z"></path>
  </symbol>
  <symbol viewBox="0 0 24 24" fill="none"  id="user">
    <path d="M16 21v-2a4 4 0 0 0-4-4H5a4 4 0 0 0-4 4v2m7.5-10a4 4 0 1 0 0-8 4 4 0 0 0 0 8zM20 8v6m3-3h-6" stroke="#232425" stroke-width="2" stroke-linecap="round" stroke-linejoin="round"></path>
  </symbol>
  <symbol viewBox="0 0 24 24" fill="none"  id="user-light">
    <path fill-rule="evenodd" clip-rule="evenodd" d="M9.8774 15.2062C6.0334 15.2062 2.7504 15.7872 2.7504 18.1152C2.7504 20.4422 6.0124 21.0452 9.8774 21.0452C13.7214 21.0452 17.0044 20.4632 17.0044 18.1362C17.0044 15.8092 13.7424 15.2062 9.8774 15.2062Z" stroke="#00C46B" stroke-width="1.5" stroke-linecap="round" stroke-linejoin="round"/>
    <path fill-rule="evenodd" clip-rule="evenodd" d="M9.8774 11.8859C12.4134 11.8859 14.4454 9.8529 14.4454 7.3179C14.4454 4.7819 12.4134 2.7499 9.8774 2.7499C7.3424 2.7499 5.3094 4.7819 5.3094 7.3179C5.3094 9.8529 7.3424 11.8859 9.8774 11.8859Z" stroke="#00C46B" stroke-width="1.5" stroke-linecap="round" stroke-linejoin="round"/>
    <path d="M19.2041 8.6691V12.6791" stroke="#00C46B" stroke-width="1.5" stroke-linecap="round" stroke-linejoin="round"/>
    <path d="M21.25 10.674H17.16" stroke="#00C46B" stroke-width="1.5" stroke-linecap="round" stroke-linejoin="round"/>
  </symbol>
  <symbol viewBox="0 0 24 24" fill="none"  id="learn">
    <path d="M12 4.5L2.5 9.5L12 14.5L21.5 9.5L12 4.5Z" stroke="#00C46B" stroke-width="1.5" stroke-linejoin="round"/>
    <path d="M6 11.5V16.5C6 17.6046 6.89543 18.5 8 18.5H16C17.1046 18.5 18 17.6046 18 16.5V11.5" stroke="#00C46B" stroke-width="1.5" stroke-linejoin="round"/>
    <path d="M22.25 9.5C22.25 9.08579 21.9142 8.75 21.5 8.75C21.0858 8.75 20.75 9.08579 20.75 9.5H22.25ZM20.75 13.5C20.75 13.9142 21.0858 14.25 21.5 14.25C21.9142 14.25 22.25 13.9142 22.25 13.5H20.75ZM20.75 9.5V13.5H22.25V9.5H20.75Z" fill="#00C46B"/>
  </symbol>
  <symbol viewBox="0 0 18 20" fill="none"  id="user-logged">
    <path d="M3.098 19.167h11.804c.92 0 1.556-.155 1.906-.463.35-.308.525-.731.525-1.268 0-.63-.196-1.29-.588-1.98-.392-.69-.955-1.338-1.687-1.944-.733-.607-1.611-1.1-2.635-1.478-1.024-.378-2.165-.567-3.423-.567s-2.399.19-3.423.567c-1.024.378-1.902.87-2.635 1.477-.733.607-1.295 1.256-1.687 1.945-.392.69-.588 1.35-.588 1.98 0 .537.175.96.525 1.268.35.308.985.463 1.906.463zM9 9.767c.752 0 1.434-.203 2.047-.608a4.346 4.346 0 0 0 1.458-1.626c.36-.68.54-1.437.54-2.273 0-.802-.181-1.539-.544-2.208a4.434 4.434 0 0 0-1.459-1.612A3.611 3.611 0 0 0 9 .833a3.62 3.62 0 0 0-2.037.607c-.613.405-1.1.943-1.464 1.617a4.51 4.51 0 0 0-.534 2.213c0 .829.18 1.583.54 2.263.359.68.844 1.222 1.453 1.626A3.61 3.61 0 0 0 9 9.766z" fill="#E6E7E8"></path>
  </symbol>
  <symbol viewBox="0 0 19 17" fill="none"  id="warning">
    <path d="M2.504 16.5h13.825c1.414 0 2.295-1.555 1.589-2.793L11.005 1.595a1.822 1.822 0 0 0-3.176 0L.916 13.707C.209 14.945 1.09 16.5 2.504 16.5z" fill="#1D1D1D"></path>
    <path d="M2.504 16.5h13.825c1.414 0 2.295-1.555 1.589-2.793L11.005 1.595a1.822 1.822 0 0 0-3.176 0L.916 13.707C.209 14.945 1.09 16.5 2.504 16.5z" fill="#FF9500"></path>
    <path d="M10.667 6.083a1.25 1.25 0 0 0-2.5 0v3.334a1.25 1.25 0 0 0 2.5 0V6.083zM9.417 14a1.25 1.25 0 1 0 0-2.5 1.25 1.25 0 0 0 0 2.5z" fill="#fff"></path>
  </symbol>
  <symbol  viewBox="0 0 512 512" id="flag_ca">
    <circle style="fill:#F0F0F0;" cx="256" cy="256" r="256"/>
    <g>
      <path style="fill:#D80027;" d="M512,256c0-101.494-59.065-189.19-144.696-230.598v461.195C452.935,445.19,512,357.494,512,256z"/>
      <path style="fill:#D80027;" d="M0,256c0,101.494,59.065,189.19,144.696,230.598V25.402C59.065,66.81,0,154.506,0,256z"/>
      <polygon style="fill:#D80027;" points="300.522,289.391 345.043,267.13 322.783,256 322.783,233.739 278.261,256 300.522,211.478 
        278.261,211.478 256,178.087 233.739,211.478 211.478,211.478 233.739,256 189.217,233.739 189.217,256 166.957,267.13 
        211.478,289.391 200.348,311.652 244.87,311.652 244.87,345.043 267.13,345.043 267.13,311.652 311.652,311.652 	"/>
    </g>
  </symbol>
  <symbol  viewBox="0 0 512 512" id="flag_ch">
    <circle style="fill:#D80027;" cx="256" cy="256" r="256"/>
    <polygon style="fill:#F0F0F0;" points="389.565,211.479 300.522,211.479 300.522,122.435 211.478,122.435 211.478,211.479 
      122.435,211.479 122.435,300.522 211.478,300.522 211.478,389.565 300.522,389.565 300.522,300.522 389.565,300.522 "/>
  </symbol>
  <symbol  viewBox="0 0 512 512" id="flag_cn">
    <circle class="st0" cx="256" cy="256" r="256" fill="#D80027"/>
    <g>
      <polygon style="fill:#FFDA44;" points="167.619,167.43 187.16,227.573 250.399,227.573 199.238,264.744 218.78,324.887 
        167.619,287.717 116.457,324.887 135.999,264.744 84.837,227.573 148.076,227.573 	"/>
      <polygon style="fill:#FFDA44;" points="290.787,367.465 271.6,353.525 252.416,367.464 259.743,344.911 240.558,330.971 
        264.274,330.971 271.6,308.418 278.931,330.971 302.644,330.971 283.459,344.91 	"/>
      <polygon style="fill:#FFDA44;" points="340.837,298.576 317.123,298.576 309.794,321.13 302.467,298.577 278.751,298.576 
        297.938,284.636 290.609,262.084 309.796,276.021 328.981,262.083 321.652,284.636 	"/>
      <polygon style="fill:#FFDA44;" points="340.837,213.426 321.652,227.366 328.98,249.917 309.796,235.981 290.609,249.919 
        297.938,227.364 278.752,213.426 302.467,213.425 309.796,190.87 317.123,213.425 	"/>
      <polygon style="fill:#FFDA44;" points="290.787,144.536 283.46,167.091 302.644,181.029 278.932,181.03 271.602,203.586 
        264.274,181.029 240.56,181.031 259.745,167.09 252.416,144.535 271.6,158.476 	"/>
    </g>
  </symbol>
  <symbol  viewBox="0 0 512 512" id="flag_nl">
    <circle style="fill:#F0F0F0;" cx="256" cy="256" r="256"/>
    <path style="fill:#A2001D;" d="M256,0C145.929,0,52.094,69.472,15.923,166.957h480.155C459.906,69.472,366.071,0,256,0z"/>
    <path style="fill:#0052B4;" d="M256,512c110.071,0,203.906-69.472,240.077-166.957H15.923C52.094,442.528,145.929,512,256,512z"/>
  </symbol>
  <symbol  viewBox="0 0 512 512" id="flag_no">
    <circle style="fill:#F0F0F0;" cx="256" cy="256" r="256"/>
    <g>
      <path style="fill:#D80027;" d="M8.819,322.783c14.812,54.959,47.457,102.593,91.355,136.322V322.783H8.819z"/>
      <path style="fill:#D80027;" d="M233.739,511.026C241.077,511.658,248.498,512,256,512c118.279,0,217.805-80.221,247.181-189.217
        H233.739V511.026z"/>
      <path style="fill:#D80027;" d="M503.181,189.217C473.805,80.221,374.279,0,256,0c-7.502,0-14.923,0.342-22.261,0.974v188.243
        H503.181z"/>
      <path style="fill:#D80027;" d="M100.174,52.895c-43.898,33.73-76.543,81.363-91.355,136.322h91.355V52.895z"/>
    </g>
    <path style="fill:#0052B4;" d="M509.833,222.609H200.349h-0.001V6.085c-23.658,5.246-46.087,13.749-66.783,25.042v191.48v0.001
      H2.167C0.742,233.539,0,244.683,0,256s0.742,22.461,2.167,33.391h131.397h0.001v191.481c20.696,11.292,43.125,19.797,66.783,25.042
      V289.394v-0.002h309.485C511.256,278.461,512,267.317,512,256S511.256,233.539,509.833,222.609z"/>
  </symbol>
  <symbol fill="none" viewBox="0 0 20 20" id="flag_kk">
    <mask id="a" maskUnits="userSpaceOnUse" x="0" y="0" width="20" height="20">
      <rect width="20" height="20" rx="10" fill="#fff"></rect>
    </mask>
    <g mask="url(#a)">
      <path fill="#30C6E0" d="M0 0h20v20H0z"></path>
      <path fill-rule="evenodd" clip-rule="evenodd" d="M12 14a4 4 0 1 0 0-8 4 4 0 0 0 0 8Z" fill="#FFCD4B"></path>
      <path fill-rule="evenodd" clip-rule="evenodd" d="M10.368 17.15 12 14.713l1.632 2.435.413-2.902 2.527 1.486-.887-2.794 2.922.243-2.011-2.133L19.333 10l-2.737-1.049 2.011-2.133-2.922.243.887-2.794-2.527 1.486-.413-2.902L12 5.286l-1.632-2.435-.413 2.902-2.527-1.486.887 2.794-2.922-.243 2.012 2.133L4.667 10l2.738 1.049-2.012 2.133 2.922-.243-.887 2.794 2.527-1.486.413 2.902ZM16.667 10a4.667 4.667 0 1 1-9.334 0 4.667 4.667 0 0 1 9.334 0ZM1.333 1.667c0-.184.15-.334.334-.334h.666c.184 0 .334.15.334.334v.666c0 .184-.15.334-.334.334h-.666a.333.333 0 0 1-.334-.334v-.666Zm0 2.666c0-.184.15-.333.334-.333h.666c.184 0 .334.15.334.333V5c0 .184-.15.333-.334.333h-.666A.333.333 0 0 1 1.333 5v-.667Zm.334 2.334A.333.333 0 0 0 1.333 7v.667c0 .184.15.333.334.333h.666c.184 0 .334-.15.334-.333V7a.333.333 0 0 0-.334-.333h-.666Zm-.334 3c0-.184.15-.334.334-.334h.666c.184 0 .334.15.334.334v.666c0 .184-.15.334-.334.334h-.666a.333.333 0 0 1-.334-.334v-.666ZM1.667 12a.333.333 0 0 0-.334.333V13c0 .184.15.333.334.333h.666c.184 0 .334-.149.334-.333v-.667A.333.333 0 0 0 2.333 12h-.666Zm-.334 3c0-.184.15-.333.334-.333h.666c.184 0 .334.149.334.333v.667c0 .184-.15.333-.334.333h-.666a.333.333 0 0 1-.334-.333V15Zm.334 2.333a.333.333 0 0 0-.334.334v.666c0 .184.15.334.334.334h.666c.184 0 .334-.15.334-.334v-.666a.333.333 0 0 0-.334-.334h-.666Zm1-1c0-.184.149-.333.333-.333h.667c.184 0 .333.15.333.333V17c0 .184-.15.333-.333.333H3A.333.333 0 0 1 2.667 17v-.667Zm.333-3a.333.333 0 0 0-.333.334v.666c0 .184.149.334.333.334h.667c.184 0 .333-.15.333-.334v-.666a.333.333 0 0 0-.333-.334H3ZM2.667 11c0-.184.149-.333.333-.333h.667c.184 0 .333.149.333.333v.667c0 .184-.15.333-.333.333H3a.333.333 0 0 1-.333-.333V11ZM3 8a.333.333 0 0 0-.333.333V9c0 .184.149.333.333.333h.667C3.85 9.333 4 9.184 4 9v-.667A.333.333 0 0 0 3.667 8H3Zm-.333-2.333c0-.184.149-.334.333-.334h.667c.184 0 .333.15.333.334v.666c0 .184-.15.334-.333.334H3a.333.333 0 0 1-.333-.334v-.666Zm.333-3A.333.333 0 0 0 2.667 3v.667c0 .184.149.333.333.333h.667C3.85 4 4 3.85 4 3.667V3a.333.333 0 0 0-.333-.333H3Z" fill="#FFCD4B"></path>
    </g>
  </symbol>
  <symbol fill="none" viewBox="0 0 20 20" id="flag_az">
    <mask id="a" maskUnits="userSpaceOnUse" x="0" y="0" width="20" height="20">
      <rect width="20" height="20" rx="10" fill="#fff"></rect>
    </mask>
    <g mask="url(#a)" fill-rule="evenodd" clip-rule="evenodd">
      <path d="M0 7h20V0H0v7Z" fill="#24AAD5"></path>
      <path d="M0 20h20v-7H0v7Z" fill="#21BF75"></path>
      <path d="M0 13h20V7H0v6Z" fill="#ED1845"></path>
      <path d="M10 12a1.99 1.99 0 0 0 1.111-.337 1.667 1.667 0 1 1 0-3.326A2 2 0 1 0 10 12Zm2-2a.667.667 0 1 1-1.333 0A.667.667 0 0 1 12 10Z" fill="#fff"></path>
    </g>
  </symbol>
  <symbol viewBox="0 0 24 24" id="download" fill="none">
    <circle r="5" transform="matrix(4.37114e-08 -1 -1 -4.37114e-08 12 15)" fill="#00C46B" fill-opacity="0.1"/>
    <circle r="5.3" transform="matrix(4.37114e-08 -1 -1 -4.37114e-08 12 15)" stroke="#00C46B" stroke-opacity="0.1" stroke-width="0.6"/>
    <path d="M5.23852 14.8117C5.63734 16.3002 6.51616 17.6154 7.73867 18.5535C8.96118 19.4915 10.4591 20 12 20C13.5409 20 15.0388 19.4915 16.2613 18.5535C17.4838 17.6154 18.3627 16.3002 18.7615 14.8117" stroke="#00C46B" stroke-width="1.2"/>
    <path d="M12 13L11.6252 13.4685L12 13.7684L12.3748 13.4685L12 13ZM12.6 4C12.6 3.66863 12.3314 3.4 12 3.4C11.6686 3.4 11.4 3.66863 11.4 4L12.6 4ZM6.62518 9.46852L11.6252 13.4685L12.3748 12.5315L7.37482 8.53148L6.62518 9.46852ZM12.3748 13.4685L17.3748 9.46852L16.6252 8.53148L11.6252 12.5315L12.3748 13.4685ZM12.6 13L12.6 4L11.4 4L11.4 13L12.6 13Z" fill="#00C46B"/>
  </symbol>
  <symbol  viewBox="0 0 14 16" id="apple-store">
    <path d="M10.8724 8.50875C10.8883 7.27362 11.5517 6.10492 12.6039 5.45799C11.9401 4.50992 10.8282 3.90882 9.67139 3.87262C8.43756 3.74311 7.24141 4.61093 6.61267 4.61093C5.97177 4.61093 5.00372 3.88548 3.9613 3.90693C2.60255 3.95083 1.33586 4.72334 0.674795 5.91125C-0.746224 8.37152 0.313728 11.9873 1.67495 13.976C2.35599 14.9498 3.15194 16.0376 4.19342 15.999C5.21257 15.9567 5.59321 15.3491 6.82341 15.3491C8.04219 15.3491 8.39931 15.999 9.46192 15.9745C10.5555 15.9567 11.2445 14.9963 11.9017 14.0133C12.391 13.3194 12.7676 12.5526 13.0174 11.7411C11.7322 11.1975 10.8739 9.90415 10.8724 8.50875Z" fill="white"/>
    <path d="M8.86532 2.56476C9.46159 1.84895 9.75535 0.928903 9.68422 0C8.77324 0.0956804 7.93176 0.531067 7.32743 1.21941C6.73647 1.89196 6.42894 2.79581 6.48708 3.68921C7.39838 3.6986 8.29427 3.27501 8.86532 2.56476Z" fill="white"/>
  </symbol>
  <symbol viewBox="0 0 20 20" id="flag_ar">
    <path d="M0 10C0 4.47715 4.47715 0 10 0C15.5228 0 20 4.47715 20 10C20 15.5228 15.5228 20 10 20C4.47715 20 0 15.5228 0 10Z" fill="#2D754D"></path>
    <path d="M17.5 9C17.5 12.5292 14.2069 15.5 10 15.5C5.79306 15.5 2.5 12.5292 2.5 9C2.5 5.47078 5.79306 2.5 10 2.5C14.2069 2.5 17.5 5.47078 17.5 9Z" stroke="white"></path>
    <path d="M16.75 9C16.75 12.1409 13.7655 14.75 10 14.75C6.23453 14.75 3.25 12.1409 3.25 9C3.25 5.85913 6.23453 3.25 10 3.25C13.7655 3.25 16.75 5.85913 16.75 9Z" stroke="#F7C608" stroke-width="0.5"></path>
    <ellipse cx="8" cy="16" rx="3" ry="1" fill="white"></ellipse>
    <ellipse cx="12" cy="16" rx="3" ry="1" fill="white"></ellipse>
    <path d="M10.0001 14C13.3083 14 16 11.7019 16 8.87779C16 7.32384 15.188 5.93727 13.9098 5C14.6767 5.77038 15.1428 6.78463 15.1428 7.88878C15.1428 10.3415 12.842 12.3311 10.0001 12.3311C7.15795 12.3311 4.85719 10.3415 4.85719 7.88878C4.85719 6.78463 5.32333 5.77038 6.0902 5C4.81203 5.93727 4 7.32384 4 8.87779C4 11.7019 6.69181 14 10.0001 14Z" fill="white"></path>
    <path fill-rule="evenodd" clip-rule="evenodd" d="M11.63 5.68432L11.6148 5.63936C11.5808 5.5395 11.5494 5.4474 11.5386 5.33624C11.5095 5.07711 11.7484 4.93015 11.9645 4.95142C12.1236 4.96664 12.2444 5.01058 12.3779 5.05914C12.431 5.07844 12.486 5.09848 12.5463 5.11772C12.643 5.14811 12.7595 5.17456 12.8821 5.20242C12.9702 5.22244 13.0615 5.24318 13.151 5.26662C13.2715 5.3169 13.151 5.4484 13.1198 5.4658C12.8982 5.54655 12.7032 5.64679 12.5266 5.73756C12.2761 5.86637 12.0626 5.97611 11.8627 5.98405C11.8245 5.98587 11.787 5.98298 11.7503 5.9754L11.7627 6.14262H11.7316L11.6921 5.96275L11.7238 5.96907C11.5756 5.9289 11.44 5.81084 11.3142 5.61664C11.3038 5.12546 11.2851 4.54919 11.2331 4.18758C11.292 4.13274 11.3162 4.08868 11.3403 4.04494C11.3485 4.03006 11.3566 4.01522 11.3661 4C11.4077 4.47764 11.4243 4.98042 11.4347 5.48707C11.4783 5.57409 11.5323 5.64758 11.63 5.68432ZM11.9728 5.72299C11.7343 5.78572 11.7186 5.63974 11.7046 5.50872C11.7017 5.48223 11.6989 5.45635 11.6944 5.43293C11.6632 5.27049 11.684 5.08678 11.9063 5.13319C12.1952 5.20474 12.459 5.2995 12.7146 5.40005L11.9728 5.72299Z" fill="white"></path>
    <path fill-rule="evenodd" clip-rule="evenodd" d="M10.1588 5.42325C10.2647 5.52767 10.4517 5.63596 10.7073 5.518L10.7086 5.52814C10.7082 5.53205 10.7078 5.53597 10.7074 5.53989L10.7101 5.53936L10.7086 5.52814C10.7406 5.22287 10.8631 4.96448 11.0169 4.96882C11.1644 4.97268 11.1582 5.22794 11.1208 5.3575C11.0735 5.52113 10.9205 5.66428 10.7364 5.74055L10.7354 5.73264L10.7017 5.74492L10.7021 5.75384C10.613 5.78607 10.5178 5.80258 10.4247 5.7984C10.2014 5.77493 10.0982 5.66425 9.99487 5.55332C9.97901 5.53629 9.96313 5.51926 9.94682 5.50253C9.48347 5.74618 9.05128 5.88348 8.71259 5.86608C8.30742 5.84674 7.93133 5.71138 7.74641 5.32076C7.72771 5.28209 7.69862 5.26855 7.67784 5.31496C6.99008 6.71306 6.86749 5.42518 6.92151 5.07904C6.94073 5.14483 6.94978 5.22542 6.95891 5.30685C6.9804 5.49828 7.0024 5.69432 7.15838 5.71331C7.27298 5.71431 7.36716 5.54421 7.45855 5.37913C7.54446 5.22397 7.62791 5.07324 7.72355 5.07324C7.75264 5.06937 7.80874 5.09451 7.82121 5.10998C7.84052 5.13705 7.85884 5.16454 7.87712 5.19197C8.01816 5.40363 8.15644 5.61114 8.72298 5.58375C9.11361 5.58568 9.47308 5.53541 9.77852 5.39618C9.72565 5.27318 9.6163 5.27609 9.48703 5.27953C9.45371 5.28042 9.41907 5.28134 9.38373 5.28015C9.40659 5.08871 9.59775 4.94948 9.96968 4.93981C10.2481 4.94174 10.4455 5.01716 10.5286 5.1912C10.4871 5.32656 10.3437 5.38844 10.1588 5.42325ZM10.1962 5.22601C10.0923 5.09838 9.96137 5.12545 9.82631 5.18346C9.8605 5.21643 9.90188 5.23736 9.94199 5.25766C9.97013 5.2719 9.99764 5.28582 10.0216 5.30336C10.0653 5.27048 10.1151 5.25308 10.1962 5.22601ZM10.8261 5.44397L10.8195 5.47159C11.0211 5.37877 11.0169 5.29755 10.992 5.15252C10.8796 5.21921 10.8558 5.31949 10.8261 5.44397Z" fill="white"></path>
    <path d="M10.7021 5.75384C10.7136 5.74967 10.725 5.74524 10.7364 5.74055C10.7353 5.745 10.7134 5.83914 10.7094 5.8448C10.7059 5.81466 10.7035 5.78428 10.7021 5.75384Z" fill="white"></path>
    <path d="M10.3935 9.16122C10.3831 8.30069 10.3686 7.32414 10.2855 6.72274C10.4921 6.50949 10.4285 6.42903 10.3278 6.30155C10.2706 6.22904 10.2013 6.14132 10.1629 6.00531C10.149 6.05278 10.1313 6.10122 10.1137 6.14974C10.0522 6.31861 9.99033 6.48849 10.0839 6.62218C10.138 7.54265 10.1899 8.46313 10.2003 9.38361C10.2123 9.37648 10.2245 9.37004 10.2368 9.3636C10.3011 9.32987 10.3656 9.296 10.3935 9.16122Z" fill="white"></path>
    <path fill-rule="evenodd" clip-rule="evenodd" d="M13.0449 6.01305C14.915 8.34904 13.9509 11.0776 10.9214 10.9983C11.9666 10.7121 13.0512 10.3718 13.5498 9.64274C13.9987 8.98719 13.9696 8.00677 13.126 6.64733C13.34 7.62195 13.394 8.85569 13.288 9.62147C13.2299 9.87286 12.2575 10.598 12.006 9.43003C11.2566 10.5244 10.5633 10.5987 10.3396 10.2193C10.1946 10.2767 10.0511 10.3181 9.91776 10.3408C9.90282 10.3433 9.88794 10.3455 9.87314 10.3476C9.61189 10.7364 9.1523 10.9501 8.72717 10.9461C8.21198 10.9415 7.74159 10.6251 7.72574 10.025C7.4978 10.2059 7.23474 10.3141 7.06089 10.3021C6.50611 10.2673 6.11755 9.77809 6.65571 9.02586C6.24014 10.1687 7.23751 10.1397 7.7258 9.72782L7.75773 9.70084C7.79516 9.52458 7.86632 9.33034 7.97791 9.11855L7.97722 9.11675L7.975 9.12061C7.92441 9.06114 7.88321 8.99691 7.8432 8.93453C7.82077 8.89957 7.79865 8.8651 7.77553 8.83247C7.76865 8.74669 7.80731 8.66515 7.83785 8.60075C7.85343 8.56788 7.86689 8.53948 7.87111 8.51727C7.90099 8.56035 7.92741 8.60051 7.95184 8.63767C8.01405 8.73225 8.06344 8.80733 8.1246 8.86148L8.08063 8.93763C8.05208 8.98461 8.02543 9.03081 8.00062 9.07622L7.97722 9.11675L7.97791 9.11855L8.00062 9.07622L8.08063 8.93763C8.18144 8.77176 8.30598 8.59612 8.45705 8.41091C8.28669 8.28096 8.11198 8.18945 7.87111 8.28909C8.01032 7.72056 9.29234 7.591 9.42117 8.03963C9.39057 8.20771 9.21657 8.29122 8.9914 8.3993L8.91257 8.43736L8.91059 8.43723L8.90536 8.44088L8.91257 8.43736C9.14548 8.45218 9.38503 8.4266 9.65804 8.22334C9.64778 8.05681 9.64068 7.89306 9.6337 7.73189C9.61806 7.37089 9.60299 7.02289 9.55415 6.686C9.4609 6.55283 9.5219 6.38494 9.58315 6.21635C9.60107 6.16705 9.619 6.11769 9.6331 6.06913C9.67146 6.20491 9.7403 6.29256 9.79727 6.36509C9.89768 6.49294 9.96119 6.5738 9.7557 6.78849C9.83258 7.32994 9.84089 7.88106 9.84089 8.2098C9.82635 8.23044 9.8121 8.25118 9.79786 8.27192C9.65336 8.48231 9.50938 8.69194 9.07832 8.77639C8.91602 8.75435 8.7836 8.66885 8.66025 8.57277C8.51765 8.65921 8.37214 8.76932 8.24031 8.92272L8.2368 8.92143L8.2151 8.9528C8.16354 9.01587 8.11429 9.08595 8.0684 9.16426L8.2151 8.9528C8.22344 8.94259 8.23185 8.93257 8.24031 8.92272C8.38515 8.97566 8.55997 8.97921 8.72515 8.98257L8.76042 8.98331C8.83374 8.98455 8.90747 8.98446 8.98059 8.98437L9.05531 8.98432C9.07514 8.94366 9.09664 8.90206 9.11987 8.85954C9.10443 8.9017 9.09052 8.94334 9.07817 8.98436C9.64591 8.98574 10.1468 9.02416 10.0819 9.74908C10.0725 9.85705 10.0508 9.95858 10.0187 10.0533C10.0963 10.0343 10.179 10.0077 10.2668 9.97296C10.2511 9.77178 10.3154 9.51893 10.483 9.24632C10.4006 9.54059 10.3887 9.75609 10.4299 9.90148C10.6431 9.7995 10.8832 9.65252 11.152 9.45128C11.1522 9.34269 11.1518 9.23433 11.1506 9.12621C10.5531 9.08166 10.2932 8.34349 10.8633 7.67801C10.5539 8.49744 10.7709 8.78727 11.1451 8.80222C11.1287 8.09339 11.0834 7.394 11.0148 6.70144C10.9174 6.57217 10.9722 6.40408 11.0273 6.23489C11.0439 6.18389 11.0605 6.13279 11.073 6.08263C11.1158 6.21678 11.1874 6.3022 11.2466 6.37293C11.3513 6.49796 11.4175 6.57705 11.2185 6.79813C11.2823 7.45333 11.3072 8.11993 11.3136 8.79262C11.466 8.77106 11.6328 8.71679 11.7953 8.64272C11.7216 8.42028 11.6314 8.20926 11.5448 8.01063L11.6944 7.75344C11.8294 7.99901 11.9503 8.25048 12.0361 8.51675C12.3441 8.33425 12.5961 8.09826 12.6398 7.91393C11.9915 7.9584 11.6591 7.83465 12.0102 7.38795C12.3572 6.95092 12.6813 7.299 12.7686 7.88299C12.8119 8.17571 12.4831 8.51158 12.1034 8.7607C12.1465 8.94953 12.1703 9.14655 12.1681 9.35461C12.2741 9.79937 12.806 9.94827 13.1717 9.54798C13.1593 8.71704 13.0594 7.9097 12.9593 7.10198C12.9251 6.82515 12.8908 6.54812 12.86 6.27024L13.0449 6.01305ZM8.73284 8.41844L8.52357 8.40528C8.58946 8.40333 8.6616 8.41027 8.73284 8.41844ZM9.84057 10.0852C9.89587 9.98228 9.9325 9.86741 9.94478 9.74134C9.98538 9.29327 9.35666 9.31072 9.02302 9.31998L9.01136 9.3203C8.97371 9.77074 9.18705 10.087 9.71621 10.0914C9.75578 10.0918 9.79722 10.0898 9.84057 10.0852ZM9.61945 10.3614C9.08718 10.3432 8.72021 10.0051 8.92146 9.32229C8.58941 9.32694 8.35154 9.28976 8.185 9.23115C8.18355 9.5058 8.02046 9.76118 7.80956 9.95372C7.81627 10.37 8.29892 10.7245 8.79366 10.6928C9.0895 10.6744 9.39635 10.5596 9.61945 10.3614ZM8.01695 9.25844C8.03873 9.39922 7.98729 9.48849 7.88409 9.58882C7.92232 9.46585 7.96714 9.35635 8.01695 9.25844ZM11.3153 9.11698C11.465 9.08881 11.6659 9.0099 11.8706 8.89944C11.9079 9.04673 11.9354 9.19854 11.9479 9.35461C11.4236 9.93992 10.8656 10.2421 10.5871 10.1061C10.8633 9.96242 11.1265 9.76542 11.314 9.53443C11.315 9.39509 11.3155 9.25592 11.3153 9.11698ZM12.191 7.44983C12.112 7.44596 12.0538 7.57552 12.0933 7.60066C12.2076 7.67414 12.3884 7.62967 12.4071 7.59293C12.4465 7.51171 12.3011 7.45369 12.191 7.44983ZM8.97028 8.12858C8.87054 8.01643 8.59419 8.06477 8.51523 8.13439L8.54859 8.157C8.61139 8.19974 8.67418 8.24248 8.7625 8.28522C8.82275 8.22527 8.89548 8.17499 8.97028 8.12858Z" fill="white"></path>
    <path d="M9.19262 6.53516C9.26742 6.68986 9.29859 6.79235 9.30275 6.94126C9.25704 7.14237 9.07211 7.32995 8.88095 7.33575C8.76251 7.33962 8.62953 7.30868 8.53603 7.13657C8.52564 7.1153 8.47577 7.06502 8.42798 7.08823C8.21812 7.40923 8.06229 7.5446 7.8732 7.54266C7.67098 7.53956 7.60898 7.44853 7.54168 7.34971C7.48313 7.26374 7.42057 7.17188 7.25817 7.1269C7.11272 7.12303 6.87377 7.26033 6.75118 7.52913C6.28575 8.75708 5.86187 7.52526 6.04264 6.95286C6.06966 7.50012 6.21095 7.825 6.35639 7.81533C6.43949 7.80775 6.51492 7.6658 6.60873 7.48925C6.63456 7.44065 6.66177 7.38944 6.69092 7.33768C6.79481 7.15397 7.04415 6.8233 7.30804 6.8233C7.40739 6.82569 7.44002 6.89708 7.47781 6.97978C7.5317 7.0977 7.59609 7.2386 7.87944 7.23519C8.11216 7.23133 8.32617 7.06502 8.54226 6.73241C8.58148 6.72606 8.59691 6.77831 8.60692 6.81222C8.60911 6.81964 8.61105 6.82617 8.61291 6.83103C8.64615 6.94512 8.85809 7.2584 9.14483 6.9722C9.14154 6.9582 9.13931 6.94211 9.13699 6.92536C9.12907 6.8681 9.12005 6.80301 9.0638 6.78655L9.19262 6.53516Z" fill="white"></path>
    <path d="M7.1191 7.8424L7.26456 7.70316L7.43287 7.83659L7.27703 7.96616L7.1191 7.8424Z" fill="white"></path>
    <path d="M7.63625 7.65674L7.48872 7.79596L7.64872 7.91971L7.80456 7.79016L7.63625 7.65674Z" fill="white"></path>
    <path d="M6.46044 6.3534L6.60797 6.21417L6.77628 6.3476L6.62044 6.47716L6.46044 6.3534Z" fill="white"></path>
    <path d="M6.67429 6.62412L6.52675 6.76336L6.68467 6.88714L6.84052 6.75756L6.67429 6.62412Z" fill="white"></path>
    <path d="M9.19675 7.44984L9.3318 7.34735L9.45646 7.47304L9.31518 7.56585L9.19675 7.44984Z" fill="white"></path>
    <path d="M7.5095 4.73482L7.41393 4.82571L7.51781 4.90693L7.61962 4.82185L7.5095 4.73482Z" fill="white"></path>
    <path d="M7.65703 4.7967L7.75263 4.70388L7.86277 4.79283L7.76094 4.87598L7.65703 4.7967Z" fill="white"></path>
    <path d="M12.6689 5.90667L12.7603 5.83513L12.6772 5.75778L12.5816 5.82353L12.6689 5.90667Z" fill="white"></path>
    <path d="M10.7086 5.52814L10.7073 5.518C10.4517 5.63596 10.2647 5.52767 10.1588 5.42325C10.3437 5.38844 10.4871 5.32656 10.5286 5.1912C10.4455 5.01716 10.2481 4.94174 9.96968 4.93981C9.59775 4.94948 9.40659 5.08871 9.38373 5.28015C9.41907 5.28134 9.45371 5.28042 9.48703 5.27953C9.6163 5.27609 9.72565 5.27318 9.77852 5.39618C9.47308 5.53541 9.11361 5.58568 8.72298 5.58375C8.15644 5.61114 8.01816 5.40362 7.87712 5.19197C7.85884 5.16454 7.84052 5.13705 7.82121 5.10998C7.80874 5.09451 7.75264 5.06937 7.72355 5.07324C7.62791 5.07324 7.54446 5.22397 7.45855 5.37913C7.36716 5.54421 7.27298 5.71431 7.15838 5.71331C7.0024 5.69432 6.9804 5.49828 6.95891 5.30685C6.94978 5.22542 6.94073 5.14483 6.92151 5.07904C6.86749 5.42518 6.99008 6.71306 7.67784 5.31496C7.69862 5.26855 7.72771 5.28209 7.74641 5.32076C7.93133 5.71138 8.30742 5.84674 8.71259 5.86608C9.05128 5.88348 9.48347 5.74618 9.94682 5.50253C9.96313 5.51926 9.97901 5.53629 9.99487 5.55332C10.0982 5.66425 10.2014 5.77493 10.4247 5.7984C10.5178 5.80258 10.613 5.78607 10.7021 5.75384M10.7086 5.52814C10.7082 5.53205 10.7078 5.53597 10.7074 5.53989L10.7101 5.53936L10.7086 5.52814ZM10.7086 5.52814C10.7406 5.22287 10.8631 4.96448 11.0169 4.96882C11.1644 4.97268 11.1582 5.22794 11.1208 5.3575C11.0735 5.52113 10.9205 5.66428 10.7364 5.74055M10.7364 5.74055L10.7354 5.73264L10.7017 5.74492L10.7021 5.75384M10.7364 5.74055C10.725 5.74524 10.7136 5.74967 10.7021 5.75384M10.7364 5.74055C10.7353 5.745 10.7134 5.83914 10.7094 5.8448C10.7059 5.81466 10.7035 5.78428 10.7021 5.75384M7.97791 9.11855C7.86632 9.33034 7.79516 9.52458 7.75773 9.70084L7.7258 9.72782C7.23751 10.1397 6.24014 10.1687 6.65571 9.02586C6.11755 9.77809 6.50611 10.2673 7.06089 10.3021C7.23474 10.3141 7.4978 10.2059 7.72574 10.025C7.74159 10.6251 8.21198 10.9415 8.72717 10.9461C9.1523 10.9501 9.61189 10.7364 9.87314 10.3476C9.88794 10.3455 9.90282 10.3433 9.91776 10.3408C10.0511 10.3181 10.1946 10.2767 10.3396 10.2193C10.5633 10.5987 11.2566 10.5244 12.006 9.43003C12.2575 10.598 13.2299 9.87286 13.288 9.62147C13.394 8.85569 13.34 7.62195 13.126 6.64733C13.9696 8.00677 13.9987 8.98719 13.5498 9.64274C13.0512 10.3718 11.9666 10.7121 10.9214 10.9983C13.9509 11.0776 14.915 8.34904 13.0449 6.01305L12.86 6.27024C12.8908 6.54812 12.9251 6.82515 12.9593 7.10198C13.0594 7.9097 13.1593 8.71704 13.1717 9.54798C12.806 9.94827 12.2741 9.79937 12.1681 9.35461C12.1703 9.14655 12.1465 8.94953 12.1034 8.7607C12.4831 8.51158 12.8119 8.17571 12.7686 7.88299C12.6813 7.299 12.3572 6.95092 12.0102 7.38795C11.6591 7.83465 11.9915 7.9584 12.6398 7.91393C12.5961 8.09826 12.3441 8.33425 12.0361 8.51675C11.9503 8.25048 11.8294 7.99901 11.6944 7.75344L11.5448 8.01063C11.6314 8.20926 11.7216 8.42028 11.7953 8.64272C11.6328 8.71679 11.466 8.77106 11.3136 8.79262C11.3072 8.11993 11.2823 7.45333 11.2185 6.79813C11.4175 6.57705 11.3513 6.49796 11.2466 6.37293C11.1874 6.3022 11.1158 6.21678 11.073 6.08263C11.0605 6.13279 11.0439 6.18389 11.0273 6.23489C10.9722 6.40408 10.9175 6.57217 11.0148 6.70144C11.0834 7.394 11.1287 8.09339 11.1451 8.80222C10.7709 8.78727 10.5539 8.49744 10.8633 7.67801C10.2932 8.34349 10.5531 9.08166 11.1506 9.12621C11.1518 9.23433 11.1522 9.34269 11.152 9.45128C10.8832 9.65252 10.6431 9.7995 10.4299 9.90148C10.3887 9.75609 10.4006 9.54059 10.483 9.24632C10.3154 9.51893 10.2511 9.77178 10.2668 9.97296C10.179 10.0077 10.0963 10.0343 10.0187 10.0533C10.0508 9.95858 10.0725 9.85705 10.0819 9.74908C10.1468 9.02416 9.64591 8.98574 9.07817 8.98436C9.09052 8.94334 9.10443 8.9017 9.11987 8.85954C9.09664 8.90206 9.07514 8.94366 9.05531 8.98432L8.98059 8.98437C8.90748 8.98446 8.83374 8.98455 8.76042 8.98331L8.72515 8.98257C8.55997 8.97921 8.38515 8.97566 8.24031 8.92272M7.97791 9.11855L7.97722 9.11675M7.97791 9.11855L8.00062 9.07622M7.97722 9.11675L7.975 9.12061C7.92441 9.06114 7.88321 8.99691 7.8432 8.93453C7.82077 8.89957 7.79865 8.8651 7.77553 8.83247C7.76865 8.74669 7.80731 8.66515 7.83785 8.60075C7.85343 8.56788 7.86689 8.53948 7.87111 8.51727C7.90099 8.56035 7.92741 8.60051 7.95184 8.63767C8.01405 8.73225 8.06344 8.80733 8.1246 8.86148L8.08063 8.93763M7.97722 9.11675L8.00062 9.07622M8.08063 8.93763C8.05208 8.98461 8.02543 9.03081 8.00062 9.07622M8.08063 8.93763L8.00062 9.07622M8.08063 8.93763C8.18144 8.77176 8.30598 8.59612 8.45705 8.41091M8.45705 8.41091L8.45858 8.41125M8.45705 8.41091C8.28669 8.28096 8.11198 8.18945 7.87111 8.28909C8.01032 7.72056 9.29234 7.591 9.42117 8.03963C9.39057 8.20771 9.21657 8.29122 8.9914 8.3993L8.91257 8.43736M8.91257 8.43736L8.91059 8.43723L8.90536 8.44088L8.91257 8.43736ZM8.91257 8.43736C9.14548 8.45218 9.38503 8.4266 9.65804 8.22334C9.64778 8.05681 9.64068 7.89306 9.6337 7.73189C9.61806 7.37089 9.60299 7.02289 9.55415 6.686C9.4609 6.55283 9.5219 6.38494 9.58315 6.21635C9.60107 6.16705 9.619 6.11769 9.6331 6.06913C9.67146 6.20491 9.7403 6.29256 9.79727 6.36509C9.89768 6.49294 9.96119 6.5738 9.7557 6.78849C9.83258 7.32994 9.84089 7.88106 9.84089 8.2098C9.82635 8.23044 9.8121 8.25118 9.79786 8.27192C9.65336 8.48231 9.50938 8.69194 9.07832 8.77639C8.91602 8.75435 8.7836 8.66884 8.66025 8.57277C8.51765 8.65921 8.37214 8.76932 8.24031 8.92272M8.24031 8.92272L8.2368 8.92143L8.2151 8.9528M8.24031 8.92272C8.23185 8.93257 8.22344 8.94259 8.2151 8.9528M8.2151 8.9528C8.16354 9.01587 8.11429 9.08595 8.0684 9.16426L8.2151 8.9528ZM11.6148 5.63936L11.63 5.68432C11.5323 5.64758 11.4783 5.57409 11.4347 5.48707C11.4243 4.98042 11.4077 4.47764 11.3661 4C11.3566 4.01522 11.3485 4.03006 11.3403 4.04494C11.3162 4.08868 11.292 4.13274 11.2331 4.18758C11.2851 4.54919 11.3038 5.12546 11.3142 5.61664C11.44 5.81084 11.5756 5.9289 11.7238 5.96907L11.6921 5.96275L11.7316 6.14262H11.7627L11.7503 5.9754C11.787 5.98298 11.8245 5.98587 11.8627 5.98405C12.0626 5.97611 12.2761 5.86637 12.5266 5.73756C12.7032 5.64679 12.8982 5.54655 13.1198 5.4658C13.151 5.4484 13.2715 5.3169 13.151 5.26662C13.0615 5.24318 12.9702 5.22244 12.8821 5.20242C12.7595 5.17456 12.643 5.14811 12.5463 5.11772C12.486 5.09848 12.431 5.07845 12.3779 5.05914C12.2444 5.01058 12.1236 4.96664 11.9645 4.95142C11.7484 4.93015 11.5095 5.07711 11.5386 5.33624C11.5494 5.4474 11.5808 5.5395 11.6148 5.63936ZM11.7046 5.50872C11.7186 5.63974 11.7343 5.78572 11.9728 5.72299L12.7146 5.40005C12.459 5.2995 12.1952 5.20474 11.9063 5.13319C11.684 5.08678 11.6632 5.27049 11.6944 5.43293C11.6989 5.45635 11.7017 5.48223 11.7046 5.50872ZM9.82631 5.18346C9.96137 5.12545 10.0923 5.09838 10.1962 5.22601C10.1151 5.25308 10.0653 5.27048 10.0216 5.30336C9.99764 5.28582 9.97013 5.2719 9.94199 5.25766C9.90188 5.23736 9.8605 5.21643 9.82631 5.18346ZM10.8195 5.47159L10.8261 5.44397C10.8558 5.31949 10.8796 5.21921 10.992 5.15252C11.0169 5.29755 11.0211 5.37877 10.8195 5.47159ZM10.2855 6.72274C10.3686 7.32414 10.3831 8.30069 10.3935 9.16122C10.3656 9.296 10.3011 9.32987 10.2368 9.3636C10.2245 9.37004 10.2123 9.37648 10.2003 9.38361C10.1899 8.46313 10.138 7.54265 10.0839 6.62218C9.99033 6.48849 10.0522 6.31861 10.1137 6.14974C10.1313 6.10122 10.149 6.05278 10.1629 6.00531C10.2013 6.14132 10.2706 6.22904 10.3278 6.30155C10.4285 6.42903 10.4921 6.50949 10.2855 6.72274ZM8.73284 8.41844L8.52357 8.40528C8.58946 8.40333 8.6616 8.41027 8.73284 8.41844ZM9.94478 9.74134C9.9325 9.86741 9.89587 9.98228 9.84057 10.0852C9.79723 10.0898 9.75578 10.0918 9.71621 10.0914C9.18705 10.087 8.97371 9.77074 9.01136 9.3203L9.02302 9.31998C9.35666 9.31072 9.98538 9.29327 9.94478 9.74134ZM8.92146 9.32229C8.72021 10.0051 9.08718 10.3432 9.61945 10.3614C9.39635 10.5596 9.0895 10.6744 8.79366 10.6928C8.29892 10.7245 7.81627 10.37 7.80956 9.95372C8.02046 9.76118 8.18355 9.5058 8.185 9.23115C8.35154 9.28976 8.58941 9.32694 8.92146 9.32229ZM8.01695 9.25844C8.03873 9.39922 7.98729 9.48849 7.88409 9.58882C7.92232 9.46585 7.96714 9.35635 8.01695 9.25844ZM11.8706 8.89944C11.6659 9.0099 11.465 9.08881 11.3153 9.11698C11.3155 9.25592 11.315 9.39509 11.314 9.53443C11.1265 9.76542 10.8633 9.96242 10.5871 10.1061C10.8656 10.2421 11.4236 9.93992 11.9479 9.35461C11.9354 9.19854 11.9079 9.04673 11.8706 8.89944ZM12.0933 7.60066C12.0538 7.57552 12.112 7.44596 12.191 7.44983C12.3011 7.45369 12.4465 7.51171 12.4071 7.59293C12.3884 7.62967 12.2076 7.67414 12.0933 7.60066ZM8.51523 8.13439C8.59419 8.06477 8.87054 8.01643 8.97028 8.12858C8.89548 8.17499 8.82275 8.22527 8.7625 8.28522C8.67418 8.24248 8.61139 8.19974 8.54859 8.157L8.51523 8.13439ZM9.30275 6.94126C9.29859 6.79235 9.26742 6.68986 9.19262 6.53516L9.0638 6.78655C9.12005 6.80301 9.12907 6.8681 9.13699 6.92536C9.13931 6.94211 9.14154 6.9582 9.14483 6.9722C8.85809 7.2584 8.64615 6.94512 8.61291 6.83103C8.61105 6.82617 8.60911 6.81964 8.60692 6.81222C8.59691 6.77831 8.58148 6.72606 8.54226 6.73241C8.32617 7.06502 8.11216 7.23133 7.87944 7.23519C7.59609 7.2386 7.5317 7.0977 7.47781 6.97978C7.44002 6.89708 7.40739 6.82569 7.30804 6.8233C7.04415 6.8233 6.79481 7.15397 6.69092 7.33768C6.66177 7.38944 6.63456 7.44065 6.60873 7.48925C6.51492 7.6658 6.43949 7.80775 6.35639 7.81533C6.21095 7.825 6.06966 7.50012 6.04264 6.95286C5.86187 7.52526 6.28575 8.75708 6.75118 7.52913C6.87377 7.26033 7.11272 7.12303 7.25817 7.1269C7.42057 7.17188 7.48313 7.26374 7.54168 7.34971C7.60898 7.44853 7.67098 7.53956 7.8732 7.54266C8.06229 7.5446 8.21812 7.40923 8.42798 7.08823C8.47577 7.06502 8.52564 7.1153 8.53603 7.13657C8.62953 7.30868 8.76251 7.33962 8.88095 7.33575C9.07211 7.32995 9.25704 7.14237 9.30275 6.94126ZM7.26456 7.70316L7.1191 7.8424L7.27703 7.96616L7.43287 7.83659L7.26456 7.70316ZM7.48872 7.79596L7.63625 7.65674L7.80456 7.79016L7.64872 7.91971L7.48872 7.79596ZM6.60797 6.21417L6.46044 6.3534L6.62044 6.47716L6.77628 6.3476L6.60797 6.21417ZM6.52675 6.76336L6.67429 6.62412L6.84052 6.75756L6.68467 6.88714L6.52675 6.76336ZM9.3318 7.34735L9.19675 7.44984L9.31518 7.56585L9.45646 7.47304L9.3318 7.34735ZM7.41393 4.82571L7.5095 4.73482L7.61962 4.82185L7.51781 4.90693L7.41393 4.82571ZM7.75263 4.70388L7.65703 4.7967L7.76094 4.87598L7.86277 4.79283L7.75263 4.70388ZM12.7603 5.83513L12.6689 5.90667L12.5816 5.82353L12.6772 5.75778L12.7603 5.83513Z" stroke="white" stroke-width="0.1"></path>
  </symbol>
  <symbol viewBox="0 0 20 20" id="flag_hi">
    <rect x="0.25" y="0.25" width="19.5" height="19.5" rx="9.75" fill="white" stroke="#F5F5F5" stroke-width="0.5"></rect>
    <mask id="mask0_11734_2387" maskUnits="userSpaceOnUse" x="0" y="0" width="20" height="20">
      <rect x="0.25" y="0.25" width="19.5" height="19.5" rx="9.75" fill="white" stroke="white" stroke-width="0.5"></rect>
    </mask>
    <g mask="url(#mask0_11734_2387)">
      <path fill-rule="evenodd" clip-rule="evenodd" d="M0 6.66667H20V0H0V6.66667Z" fill="#FFA44A"></path>
      <path fill-rule="evenodd" clip-rule="evenodd" d="M0 20H20V13.3333H0V20Z" fill="#1A9F0B"></path>
      <path d="M10 12.3333C11.2887 12.3333 12.3333 11.2887 12.3333 10C12.3333 8.71134 11.2887 7.66667 10 7.66667C8.71134 7.66667 7.66667 8.71134 7.66667 10C7.66667 11.2887 8.71134 12.3333 10 12.3333Z" fill="#181A93" fill-opacity="0.15" stroke="#181A93" stroke-width="0.666667"></path>
      <path fill-rule="evenodd" clip-rule="evenodd" d="M9.99998 10.6667C10.3682 10.6667 10.6666 10.3682 10.6666 10C10.6666 9.63185 10.3682 9.33337 9.99998 9.33337C9.63179 9.33337 9.33331 9.63185 9.33331 10C9.33331 10.3682 9.63179 10.6667 9.99998 10.6667Z" fill="#181A93"></path>
    </g>
  </symbol>
  <symbol viewBox="0 0 20 20" id="flag_ta">
    <rect x="0.25" y="0.25" width="19.5" height="19.5" rx="9.75" fill="white" stroke="#F5F5F5" stroke-width="0.5"></rect>
    <mask id="mask0_11734_2387" maskUnits="userSpaceOnUse" x="0" y="0" width="20" height="20">
      <rect x="0.25" y="0.25" width="19.5" height="19.5" rx="9.75" fill="white" stroke="white" stroke-width="0.5"></rect>
    </mask>
    <g mask="url(#mask0_11734_2387)">
      <path fill-rule="evenodd" clip-rule="evenodd" d="M0 6.66667H20V0H0V6.66667Z" fill="#FFA44A"></path>
      <path fill-rule="evenodd" clip-rule="evenodd" d="M0 20H20V13.3333H0V20Z" fill="#1A9F0B"></path>
      <path d="M10 12.3333C11.2887 12.3333 12.3333 11.2887 12.3333 10C12.3333 8.71134 11.2887 7.66667 10 7.66667C8.71134 7.66667 7.66667 8.71134 7.66667 10C7.66667 11.2887 8.71134 12.3333 10 12.3333Z" fill="#181A93" fill-opacity="0.15" stroke="#181A93" stroke-width="0.666667"></path>
      <path fill-rule="evenodd" clip-rule="evenodd" d="M9.99998 10.6667C10.3682 10.6667 10.6666 10.3682 10.6666 10C10.6666 9.63185 10.3682 9.33337 9.99998 9.33337C9.63179 9.33337 9.33331 9.63185 9.33331 10C9.33331 10.3682 9.63179 10.6667 9.99998 10.6667Z" fill="#181A93"></path>
    </g>
  </symbol>
  <symbol viewBox="0 0 20 20" id="flag_tl">
    <rect x="0.25" y="0.25" width="19.5" height="19.5" rx="9.75" fill="white" stroke="#F5F5F5" stroke-width="0.5"></rect>
    <mask id="mask0_11734_2436" maskUnits="userSpaceOnUse" x="0" y="0" width="20" height="20">
      <rect x="0.25" y="0.25" width="19.5" height="19.5" rx="9.75" fill="white" stroke="white" stroke-width="0.5"></rect>
    </mask>
    <g mask="url(#mask0_11734_2436)">
      <path fill-rule="evenodd" clip-rule="evenodd" d="M-1 20V20H20V10H13L-1 20Z" fill="#DD1C34"></path>
      <path fill-rule="evenodd" clip-rule="evenodd" d="M20 10H13L-1 0H20V10Z" fill="#0D4BC3"></path>
      <path fill-rule="evenodd" clip-rule="evenodd" d="M0.99998 4.00002C1.36817 4.00002 1.66665 3.70154 1.66665 3.33335C1.66665 2.96516 1.36817 2.66669 0.99998 2.66669C0.63179 2.66669 0.333313 2.96516 0.333313 3.33335C0.333313 3.70154 0.63179 4.00002 0.99998 4.00002ZM8.99998 10.6667C9.36817 10.6667 9.66665 10.3682 9.66665 10C9.66665 9.63183 9.36817 9.33335 8.99998 9.33335C8.63179 9.33335 8.33331 9.63183 8.33331 10C8.33331 10.3682 8.63179 10.6667 8.99998 10.6667ZM1.66665 16.6667C1.66665 17.0349 1.36817 17.3334 0.99998 17.3334C0.63179 17.3334 0.333313 17.0349 0.333313 16.6667C0.333313 16.2985 0.63179 16 0.99998 16C1.36817 16 1.66665 16.2985 1.66665 16.6667ZM3.53205 11.3266L2.39103 13.0796L2.82377 11.0332C2.75413 10.9763 2.69035 10.9125 2.63348 10.8429L0.587048 11.2756L2.34002 10.1346C2.33559 10.0904 2.33331 10.0455 2.33331 10C2.33331 9.95459 2.33559 9.90969 2.34002 9.86543L0.587048 8.72441L2.63348 9.15714C2.69035 9.08751 2.75413 9.02373 2.82377 8.96685L2.39103 6.92042L3.53205 8.6734C3.57632 8.66896 3.62122 8.66669 3.66665 8.66669C3.71208 8.66669 3.75698 8.66896 3.80124 8.6734L4.94226 6.92042L4.50953 8.96685C4.57916 9.02373 4.64294 9.0875 4.69982 9.15714L6.74624 8.72441L4.99327 9.86543C4.99771 9.90969 4.99998 9.95459 4.99998 10C4.99998 10.0455 4.99771 10.0904 4.99327 10.1346L6.74624 11.2756L4.69982 10.8429C4.64294 10.9125 4.57916 10.9763 4.50953 11.0332L4.94226 13.0796L3.80124 11.3266C3.75698 11.3311 3.71208 11.3334 3.66665 11.3334C3.62122 11.3334 3.57632 11.3311 3.53205 11.3266Z" fill="#FDD64D"></path>
    </g>
  </symbol>
  <symbol viewBox="0 0 20 20" id="flag_tw">
    <rect width="20" height="20" rx="10" fill="white"></rect>
    <mask id="mask0_11734_2363" maskUnits="userSpaceOnUse" x="0" y="0" width="20" height="20">
      <rect width="20" height="20" rx="10" fill="white"></rect>
    </mask>
    <g mask="url(#mask0_11734_2363)">
      <path fill-rule="evenodd" clip-rule="evenodd" d="M0 20H20V0H0V20Z" fill="#FE3030"></path>
      <path fill-rule="evenodd" clip-rule="evenodd" d="M0 11H13V0H0V11Z" fill="#0909B6"></path>
      <path fill-rule="evenodd" clip-rule="evenodd" d="M7.33333 7L6.05772 8.41293L6.15482 6.51184L4.25373 6.60894L5.66667 5.33333L4.25373 4.05772L6.15482 4.15482L6.05772 2.25373L7.33333 3.66667L8.60894 2.25373L8.51184 4.15482L10.4129 4.05772L9 5.33333L10.4129 6.60894L8.51184 6.51184L8.60894 8.41293L7.33333 7Z" fill="white"></path>
    </g>
  </symbol>
  <symbol viewBox="0 0 20 20" id="flag_ur">
    <rect x="0.25" y="0.25" width="19.5" height="19.5" rx="9.75" fill="white" stroke="#F5F5F5" stroke-width="0.5"></rect>
    <mask id="mask0_11734_2471" maskUnits="userSpaceOnUse" x="0" y="0" width="20" height="20">
      <rect x="0.25" y="0.25" width="19.5" height="19.5" rx="9.75" fill="white" stroke="white" stroke-width="0.5"></rect>
    </mask>
    <g mask="url(#mask0_11734_2471)">
      <path fill-rule="evenodd" clip-rule="evenodd" d="M0 0H-2.3999V20H0V0ZM4 0V20H20.0001V0H4Z" fill="#0A632F"></path>
      <path fill-rule="evenodd" clip-rule="evenodd" d="M18.6701 10.7505C18.5418 12.0012 18.0087 13.2029 17.0665 14.1451C14.8206 16.391 11.1005 16.3121 8.75735 13.969C6.4142 11.6258 6.33534 7.90568 8.58121 5.65982C9.52343 4.7176 10.7251 4.18455 11.9758 4.05622C11.5818 4.28838 11.209 4.57485 10.8685 4.91527C8.82684 6.95697 8.72585 10.1662 10.643 12.0833C12.5601 14.0005 15.7693 13.8995 17.811 11.8578C18.1515 11.5174 18.4379 11.1445 18.6701 10.7505ZM16.0924 8.10469L15.7742 10.0031L14.8849 8.29594L12.981 8.57994L14.3298 7.2066L13.4714 5.48368L15.1943 6.3421L16.5677 4.99328L16.2837 6.89715L17.9908 7.78645L16.0924 8.10469Z" fill="white"></path>
    </g>
  </symbol>
  <symbol viewBox="0 0 20 20" id="flag_de">
    <path d="M10 0C5.64595 0 1.94182 2.78269 0.569031 6.66667H19.431C18.0582 2.78269 14.3541 0 10 0Z" fill="#262626"></path>
    <path d="M0.569023 6.66666C0.200515 7.70926 0 8.83121 0 10C0 11.1688 0.200513 12.2907 0.569015 13.3333H19.431C19.7995 12.2907 20 11.1688 20 10C20 8.83121 19.7995 7.70926 19.431 6.66666H0.569023Z" fill="#F01515"></path>
    <path d="M19.431 13.3333C18.0582 17.2173 14.3541 20 10 20C5.64595 20 1.94182 17.2173 0.569031 13.3333H19.431Z" fill="#FFD521"></path>
  </symbol>
    <symbol fill="none" xmlns="http://www.w3.org/2000/svg" viewBox="0 0 24 24" id="flag_tr">
    <path d="M12 24C18.6274 24 24 18.6274 24 12C24 5.37258 18.6274 0 12 0C5.37258 0 0 5.37258 0 12C0 18.6274 5.37258 24 12 24Z" fill="#D80027"></path>
    <path d="M11.5086 9.80524L12.4932 11.162L14.0877 10.645L13.1016 12.0006L14.0861 13.3574L12.4921 12.8384L11.506 14.194L11.507 12.5177L9.91296 11.9987L11.5076 11.4817L11.5086 9.80524Z" fill="#F0F0F0"></path>
    <path d="M8.82143 15.3913C6.9485 15.3913 5.43012 13.8729 5.43012 12C5.43012 10.1271 6.9485 8.60867 8.82143 8.60867C9.4054 8.60867 9.95487 8.75638 10.4346 9.0163C9.68201 8.28027 8.65278 7.82605 7.51709 7.82605C5.21187 7.82605 3.3432 9.69477 3.3432 11.9999C3.3432 14.3051 5.21192 16.1738 7.51709 16.1738C8.65287 16.1738 9.68206 15.7196 10.4346 14.9836C9.95487 15.2436 9.4054 15.3913 8.82143 15.3913Z" fill="#F0F0F0"></path>
  </symbol>
  <symbol fill="none" xmlns="http://www.w3.org/2000/svg" viewBox="0 0 24 24" id="flag_ru">
    <rect width="24" height="24" rx="12" fill="#0052B4"></rect>
    <path d="M9.99418 16L8.44318 13.327H7.28818V16H5.77018V8.3H8.85018C9.56151 8.3 10.1665 8.54933 10.6652 9.048C11.1638 9.54667 11.4132 10.148 11.4132 10.852C11.4132 11.3287 11.2775 11.7723 11.0062 12.183C10.7348 12.5863 10.3755 12.8907 9.92818 13.096L11.6332 16H9.99418ZM7.28818 9.719V11.996H8.85018C9.13618 11.996 9.38184 11.886 9.58718 11.666C9.79251 11.4387 9.89518 11.1673 9.89518 10.852C9.89518 10.5367 9.79251 10.269 9.58718 10.049C9.38184 9.829 9.13618 9.719 8.85018 9.719H7.28818ZM15.3443 16.154C14.4863 16.154 13.7823 15.912 13.2323 15.428C12.6823 14.944 12.4073 14.295 12.4073 13.481V8.3H13.9143V13.36C13.9143 13.7633 14.028 14.0823 14.2553 14.317C14.49 14.5517 14.853 14.669 15.3443 14.669C15.8356 14.669 16.195 14.5517 16.4223 14.317C16.657 14.0823 16.7743 13.7633 16.7743 13.36V8.3H18.2923V13.481C18.2923 14.295 18.0173 14.944 17.4673 15.428C16.9173 15.912 16.2096 16.154 15.3443 16.154Z" fill="white"></path>
  </symbol>
  <symbol fill="none" xmlns="http://www.w3.org/2000/svg" viewBox="0 0 24 24" id="flag_ua">
    <path fill-rule="evenodd" clip-rule="evenodd" d="M0 12.8H24V0H0V12.8Z" fill="#156DD1"></path>
    <path fill-rule="evenodd" clip-rule="evenodd" d="M0 24H24V12.8H0V24Z" fill="#FFD948"></path>
  </symbol>
</svg>
